<svg xmlns="http://www.w3.org/2000/svg" width="720" height="360" viewBox="0 0 720 360" role="img" aria-label="Production profile for XN42-1">
  <rect width="100%" height="100%" fill="#ffffff"/>
  <text x="58" y="24" font-family="Inter, Arial, sans-serif" font-size="16" font-weight="700" fill="#102033">Production Profile - XN42-1</text>
  <text x="58" y="39" font-family="Inter, Arial, sans-serif" font-size="11" fill="#607080">1954-01-01 to 1983-12-01 | compact AI Lab SVG</text>
  <g font-family="Inter, Arial, sans-serif">
    <line x1="58" y1="44.00" x2="696" y2="44.00" stroke="#e3eaf1"/><text x="48" y="48.00" text-anchor="end" font-size="10" fill="#607080">4969</text><line x1="58" y1="108.50" x2="696" y2="108.50" stroke="#e3eaf1"/><text x="48" y="112.50" text-anchor="end" font-size="10" fill="#607080">3635</text><line x1="58" y1="173.00" x2="696" y2="173.00" stroke="#e3eaf1"/><text x="48" y="177.00" text-anchor="end" font-size="10" fill="#607080">2300</text><line x1="58" y1="237.50" x2="696" y2="237.50" stroke="#e3eaf1"/><text x="48" y="241.50" text-anchor="end" font-size="10" fill="#607080">966</text><line x1="58" y1="302.00" x2="696" y2="302.00" stroke="#e3eaf1"/><text x="48" y="306.00" text-anchor="end" font-size="10" fill="#607080">-368</text>
    <line x1="58" y1="44" x2="58" y2="302" stroke="#8ca0b3"/>
    <line x1="58" y1="302" x2="696" y2="302" stroke="#8ca0b3"/>
    <text x="58" y="326" font-size="10" fill="#607080">1954-01-01</text>
    <text x="696" y="326" text-anchor="end" font-size="10" fill="#607080">1983-12-01</text>
    <text x="18" y="173.0" transform="rotate(-90 18 173.0)" text-anchor="middle" font-size="11" fill="#607080">Production / Rate</text>
    <polyline points="58.00,284.21 59.78,284.21 61.55,284.21 63.33,284.21 65.11,284.21 66.89,99.81 68.66,126.03 70.44,61.79 72.22,284.21 73.99,284.21 75.77,62.94 77.55,141.12 79.33,129.06 81.10,142.58 82.88,159.38 84.66,165.67 86.43,160.46 88.21,169.30 89.99,148.24 91.77,126.11 93.54,131.39 95.32,173.44 97.10,201.04 98.87,197.48 100.65,156.61 102.43,163.60 104.21,171.74 105.98,175.66 107.76,175.74 109.54,183.70 111.31,170.17 113.09,165.88 114.87,174.23 116.65,175.72 118.42,184.40 120.20,183.29 121.98,193.03 123.75,190.13 125.53,196.94 127.31,187.17 129.09,199.77 130.86,201.69 132.64,190.12 134.42,197.15 136.19,205.21 137.97,203.55 139.75,199.13 141.53,205.25 143.30,204.02 145.08,207.35 146.86,205.99 148.64,213.80 150.41,206.86 152.19,210.49 153.97,215.61 155.74,214.96 157.52,215.41 159.30,284.21 161.08,284.21 162.85,284.21 164.63,284.21 166.41,284.21 168.18,284.21 169.96,284.21 171.74,284.21 173.52,209.92 175.29,205.53 177.07,208.30 178.85,222.53 180.62,209.87 182.40,206.98 184.18,189.56 185.96,221.46 187.73,219.56 189.51,182.10 191.29,224.35 193.06,217.68 194.84,229.29 196.62,227.13 198.40,228.90 200.17,232.12 201.95,224.12 203.73,232.05 205.50,224.35 207.28,218.28 209.06,217.94 210.84,230.04 212.61,214.30 214.39,214.74 216.17,215.88 217.94,215.56 219.72,216.21 221.50,213.64 223.28,227.57 225.05,233.27 226.83,233.32 228.61,219.73 230.38,237.52 232.16,218.75 233.94,244.67 235.72,233.98 237.49,228.42 239.27,228.77 241.05,246.24 242.82,246.63 244.60,239.95 246.38,243.22 248.16,248.75 249.93,245.65 251.71,246.18 253.49,253.71 255.26,251.89 257.04,255.69 258.82,252.36 260.60,247.31 262.37,250.05 264.15,250.38 265.93,247.88 267.70,253.50 269.48,253.47 271.26,247.08 273.04,255.76 274.81,265.66 276.59,260.86 278.37,247.65 280.14,251.94 281.92,254.52 283.70,284.21 285.48,240.33 287.25,284.21 289.03,252.36 290.81,252.08 292.58,236.96 294.36,241.12 296.14,229.65 297.92,242.15 299.69,245.65 301.47,284.21 303.25,274.70 305.03,274.15 306.80,232.11 308.58,272.89 310.36,228.72 312.13,235.27 313.91,220.17 315.69,284.21 317.47,284.21 319.24,245.32 321.02,237.12 322.80,284.21 324.57,254.29 326.35,252.95 328.13,258.73 329.91,257.31 331.68,262.47 333.46,254.10 335.24,266.46 337.01,264.52 338.79,273.51 340.57,260.48 342.35,263.12 344.12,284.21 345.90,284.21 347.68,264.96 349.45,265.78 351.23,284.21 353.01,284.21 354.79,284.21 356.56,284.21 358.34,284.21 360.12,284.21 361.89,284.21 363.67,284.21 365.45,284.21 367.23,267.21 369.00,284.21 370.78,266.82 372.56,267.86 374.33,284.21 376.11,256.24 377.89,257.23 379.67,242.16 381.44,249.89 383.22,245.24 385.00,248.43 386.77,252.81 388.55,266.32 390.33,250.94 392.11,258.02 393.88,250.31 395.66,251.21 397.44,252.08 399.21,251.44 400.99,249.63 402.77,252.25 404.55,254.33 406.32,254.09 408.10,255.96 409.88,256.83 411.65,257.81 413.43,255.13 415.21,252.14 416.99,256.02 418.76,284.21 420.54,253.65 422.32,254.19 424.09,257.52 425.87,253.36 427.65,252.94 429.43,284.21 431.20,284.21 432.98,284.21 434.76,284.21 436.53,284.21 438.31,284.21 440.09,284.21 441.87,284.21 443.64,284.21 445.42,284.21 447.20,284.21 448.97,254.25 450.75,254.13 452.53,252.54 454.31,284.21 456.08,247.88 457.86,250.49 459.64,252.22 461.42,284.21 463.19,284.21 464.97,284.21 466.75,284.21 468.52,284.21 470.30,284.21 472.08,284.21 473.86,284.21 475.63,284.21 477.41,284.21 479.19,284.21 480.96,284.21 482.74,284.21 484.52,249.31 486.30,252.36 488.07,253.12 489.85,253.88 491.63,256.29 493.40,258.36 495.18,257.01 496.96,258.43 498.74,256.25 500.51,261.21 502.29,262.57 504.07,259.72 505.84,260.56 507.62,261.66 509.40,261.21 511.18,261.02 512.95,284.21 514.73,284.21 516.51,284.21 518.28,284.21 520.06,257.67 521.84,260.62 523.62,259.86 525.39,259.64 527.17,263.34 528.95,264.39 530.72,265.04 532.50,264.26 534.28,263.43 536.06,267.20 537.83,263.64 539.61,262.96 541.39,264.90 543.16,265.71 544.94,266.18 546.72,266.15 548.50,266.79 550.27,266.26 552.05,284.21 553.83,263.74 555.60,265.12 557.38,284.21 559.16,271.81 560.94,271.81 562.71,263.80 564.49,265.45 566.27,265.43 568.04,265.71 569.82,265.84 571.60,264.98 573.38,267.18 575.15,266.24 576.93,266.72 578.71,266.33 580.48,266.82 582.26,267.70 584.04,284.21 585.82,266.69 587.59,266.51 589.37,266.13 591.15,267.49 592.92,265.55 594.70,268.45 596.48,266.29 598.26,269.79 600.03,270.83 601.81,267.42 603.59,268.20 605.36,267.99 607.14,267.93 608.92,270.44 610.70,269.93 612.47,270.37 614.25,270.41 616.03,270.28 617.81,269.37 619.58,268.68 621.36,269.12 623.14,269.46 624.91,269.78 626.69,271.56 628.47,270.36 630.25,271.11 632.02,270.06 633.80,270.38 635.58,271.37 637.35,274.05 639.13,270.95 640.91,270.81 642.69,270.61 644.46,273.69 646.24,273.01 648.02,271.74 649.79,273.40 651.57,271.04 653.35,272.39 655.13,273.44 656.90,272.34 658.68,272.22 660.46,271.86 662.23,273.04 664.01,272.82 665.79,273.58 667.57,272.17 669.34,272.96 671.12,272.70 672.90,272.67 674.67,272.09 676.45,284.21 678.23,284.21 680.01,284.21 681.78,284.21 683.56,284.21 685.34,284.21 687.11,269.34 688.89,269.37 690.67,269.27 692.45,270.55 694.22,270.35 696.00,271.30" fill="none" stroke="#2e7d32" stroke-width="2.4" stroke-linecap="round" stroke-linejoin="round"/><polyline points="58.00,284.21 59.78,284.21 61.55,284.21 63.33,284.21 65.11,284.21 66.89,277.82 68.66,274.18 70.44,270.01 72.22,284.21 73.99,284.21 75.77,270.18 77.55,268.64 79.33,261.56 81.10,259.80 82.88,264.75 84.66,261.89 86.43,260.54 88.21,259.70 89.99,251.16 91.77,243.91 93.54,245.26 95.32,257.58 97.10,254.99 98.87,258.34 100.65,253.78 102.43,252.99 104.21,249.62 105.98,250.39 107.76,245.32 109.54,245.09 111.31,244.98 113.09,234.82 114.87,240.02 116.65,236.45 118.42,246.90 120.20,242.81 121.98,242.34 123.75,242.42 125.53,248.02 127.31,242.52 129.09,245.60 130.86,244.74 132.64,237.54 134.42,244.01 136.19,245.43 137.97,242.40 139.75,240.11 141.53,250.26 143.30,247.11 145.08,242.17 146.86,242.35 148.64,243.42 150.41,243.50 152.19,242.71 153.97,242.88 155.74,239.59 157.52,239.88 159.30,284.21 161.08,284.21 162.85,284.21 164.63,284.21 166.41,284.21 168.18,284.21 169.96,284.21 171.74,284.21 173.52,248.13 175.29,238.59 177.07,238.91 178.85,245.07 180.62,235.38 182.40,235.17 184.18,236.88 185.96,239.52 187.73,240.12 189.51,236.86 191.29,241.05 193.06,238.14 194.84,241.28 196.62,240.81 198.40,237.94 200.17,240.53 201.95,231.39 203.73,238.30 205.50,242.33 207.28,240.50 209.06,241.60 210.84,241.72 212.61,226.99 214.39,222.99 216.17,238.03 217.94,227.68 219.72,230.15 221.50,223.79 223.28,226.54 225.05,226.68 226.83,225.75 228.61,192.55 230.38,218.31 232.16,217.98 233.94,223.99 235.72,224.53 237.49,214.25 239.27,225.89 241.05,230.49 242.82,229.13 244.60,218.45 246.38,219.67 248.16,220.89 249.93,218.84 251.71,216.98 253.49,223.90 255.26,225.39 257.04,221.06 258.82,224.28 260.60,224.86 262.37,226.82 264.15,223.34 265.93,218.84 267.70,234.14 269.48,219.33 271.26,205.13 273.04,222.79 274.81,203.46 276.59,236.62 278.37,224.56 280.14,216.93 281.92,235.80 283.70,284.21 285.48,206.78 287.25,284.21 289.03,228.01 290.81,227.50 292.58,229.81 294.36,235.21 296.14,228.48 297.92,232.83 299.69,237.11 301.47,284.21 303.25,272.59 305.03,267.80 306.80,212.90 308.58,263.10 310.36,195.94 312.13,225.56 313.91,207.45 315.69,284.21 317.47,284.21 319.24,200.25 321.02,182.52 322.80,284.21 324.57,194.36 326.35,211.40 328.13,204.16 329.91,216.38 331.68,216.73 333.46,206.92 335.24,212.19 337.01,214.92 338.79,226.46 340.57,213.94 342.35,221.76 344.12,284.21 345.90,284.21 347.68,209.19 349.45,214.91 351.23,284.21 353.01,284.21 354.79,284.21 356.56,284.21 358.34,284.21 360.12,284.21 361.89,284.21 363.67,284.21 365.45,284.21 367.23,220.29 369.00,284.21 370.78,218.84 372.56,222.74 374.33,284.21 376.11,204.53 377.89,207.34 379.67,196.96 381.44,213.01 383.22,216.33 385.00,166.20 386.77,218.50 388.55,216.31 390.33,157.89 392.11,212.45 393.88,209.91 395.66,209.94 397.44,209.83 399.21,205.04 400.99,201.53 402.77,193.71 404.55,206.51 406.32,213.11 408.10,208.17 409.88,210.50 411.65,213.14 413.43,212.89 415.21,202.03 416.99,211.97 418.76,284.21 420.54,205.89 422.32,210.30 424.09,238.06 425.87,196.75 427.65,195.59 429.43,284.21 431.20,284.21 432.98,284.21 434.76,284.21 436.53,284.21 438.31,284.21 440.09,284.21 441.87,284.21 443.64,284.21 445.42,284.21 447.20,284.21 448.97,199.30 450.75,191.61 452.53,186.65 454.31,284.21 456.08,183.03 457.86,194.47 459.64,192.91 461.42,284.21 463.19,284.21 464.97,284.21 466.75,284.21 468.52,284.21 470.30,284.21 472.08,284.21 473.86,284.21 475.63,284.21 477.41,284.21 479.19,284.21 480.96,284.21 482.74,284.21 484.52,200.24 486.30,190.89 488.07,189.20 489.85,191.97 491.63,190.79 493.40,197.36 495.18,199.38 496.96,194.82 498.74,198.31 500.51,196.64 502.29,200.87 504.07,197.27 505.84,204.67 507.62,200.89 509.40,198.54 511.18,197.83 512.95,284.21 514.73,284.21 516.51,284.21 518.28,284.21 520.06,185.30 521.84,181.39 523.62,179.91 525.39,178.96 527.17,171.54 528.95,177.20 530.72,180.69 532.50,170.46 534.28,176.35 536.06,175.30 537.83,171.28 539.61,171.01 541.39,169.43 543.16,172.80 544.94,175.63 546.72,175.39 548.50,179.28 550.27,176.07 552.05,284.21 553.83,183.32 555.60,191.75 557.38,284.21 559.16,213.01 560.94,213.00 562.71,189.09 564.49,182.23 566.27,185.59 568.04,183.70 569.82,187.34 571.60,178.08 573.38,182.04 575.15,186.54 576.93,179.68 578.71,173.32 580.48,176.33 582.26,181.79 584.04,284.21 585.82,174.45 587.59,176.05 589.37,179.16 591.15,183.58 592.92,174.48 594.70,178.68 596.48,166.70 598.26,179.74 600.03,178.38 601.81,184.30 603.59,170.50 605.36,169.00 607.14,171.46 608.92,176.23 610.70,169.96 612.47,180.43 614.25,184.71 616.03,180.03 617.81,186.69 619.58,188.05 621.36,182.60 623.14,183.04 624.91,189.94 626.69,190.30 628.47,183.84 630.25,181.95 632.02,179.81 633.80,185.05 635.58,182.40 637.35,206.25 639.13,182.47 640.91,181.40 642.69,185.08 644.46,186.55 646.24,180.31 648.02,183.59 649.79,197.43 651.57,189.57 653.35,186.70 655.13,188.52 656.90,188.27 658.68,188.79 660.46,181.00 662.23,185.48 664.01,187.73 665.79,185.46 667.57,188.58 669.34,187.22 671.12,184.97 672.90,184.63 674.67,179.68 676.45,284.21 678.23,284.21 680.01,284.21 681.78,284.21 683.56,284.21 685.34,284.21 687.11,155.98 688.89,156.16 690.67,155.35 692.45,166.44 694.22,164.67 696.00,172.86" fill="none" stroke="#1f6fb2" stroke-width="2.4" stroke-linecap="round" stroke-linejoin="round"/><polyline points="58.00,284.21 59.78,284.21 61.55,284.21 63.33,284.21 65.11,284.21 66.89,253.78 68.66,258.11 70.44,247.51 72.22,284.21 73.99,284.21 75.77,247.70 77.55,260.60 79.33,258.61 81.10,260.84 82.88,263.61 84.66,264.65 86.43,263.79 88.21,265.25 89.99,261.77 91.77,258.12 93.54,258.99 95.32,265.93 97.10,270.48 98.87,269.90 100.65,263.15 102.43,264.31 104.21,265.65 105.98,266.30 107.76,266.31 109.54,267.62 111.31,265.39 113.09,264.68 114.87,266.06 116.65,266.31 118.42,267.74 120.20,267.56 121.98,269.16 123.75,268.69 125.53,269.81 127.31,268.20 129.09,270.27 130.86,270.59 132.64,268.68 134.42,269.84 136.19,271.17 137.97,270.90 139.75,270.17 141.53,271.18 143.30,270.98 145.08,271.53 146.86,271.30 148.64,272.59 150.41,271.44 152.19,272.04 153.97,272.89 155.74,272.78 157.52,272.86 159.30,284.21 161.08,284.21 162.85,284.21 164.63,284.21 166.41,284.21 168.18,284.21 169.96,284.21 171.74,284.21 173.52,271.95 175.29,271.23 177.07,271.68 178.85,274.03 180.62,271.94 182.40,271.46 184.18,268.59 185.96,273.85 187.73,273.54 189.51,267.36 191.29,274.33 193.06,273.23 194.84,275.15 196.62,274.79 198.40,275.08 200.17,275.61 201.95,274.29 203.73,275.60 205.50,274.33 207.28,273.33 209.06,273.27 210.84,275.27 212.61,272.67 214.39,272.74 216.17,272.93 217.94,272.88 219.72,272.99 221.50,272.56 223.28,274.86 225.05,275.80 226.83,275.81 228.61,273.57 230.38,276.50 232.16,273.41 233.94,277.68 235.72,275.92 237.49,275.00 239.27,275.06 241.05,277.94 242.82,278.01 244.60,276.90 246.38,277.44 248.16,278.36 249.93,277.84 251.71,277.93 253.49,279.17 255.26,278.88 257.04,279.50 258.82,278.95 260.60,278.12 262.37,278.57 264.15,278.62 265.93,278.21 267.70,279.14 269.48,279.13 271.26,278.08 273.04,279.51 274.81,281.15 276.59,280.36 278.37,278.18 280.14,278.88 281.92,279.31 283.70,284.21 285.48,276.97 287.25,284.21 289.03,278.95 290.81,278.91 292.58,276.41 294.36,277.10 296.14,275.21 297.92,277.27 299.69,277.84 301.47,284.21 303.25,282.64 305.03,282.55 306.80,275.61 308.58,282.34 310.36,275.05 312.13,276.13 313.91,273.64 315.69,284.21 317.47,284.21 319.24,277.79 321.02,276.45 322.80,284.21 324.57,279.27 326.35,279.05 328.13,280.00 329.91,279.77 331.68,280.62 333.46,279.24 335.24,281.28 337.01,280.96 338.79,282.44 340.57,280.29 342.35,280.73 344.12,284.21 345.90,284.21 347.68,281.03 349.45,281.16 351.23,284.21 353.01,284.21 354.79,284.21 356.56,284.21 358.34,284.21 360.12,284.21 361.89,284.21 363.67,284.21 365.45,284.21 367.23,281.40 369.00,284.21 370.78,281.34 372.56,281.51 374.33,284.21 376.11,279.59 377.89,279.76 379.67,277.27 381.44,278.54 383.22,277.78 385.00,278.31 386.77,279.03 388.55,281.26 390.33,278.72 392.11,279.89 393.88,278.61 395.66,278.76 397.44,278.91 399.21,278.80 400.99,278.50 402.77,278.93 404.55,279.28 406.32,279.24 408.10,279.55 409.88,279.69 411.65,279.85 413.43,279.41 415.21,278.92 416.99,279.55 418.76,284.21 420.54,279.16 422.32,279.25 424.09,279.80 425.87,279.11 427.65,279.05 429.43,284.21 431.20,284.21 432.98,284.21 434.76,284.21 436.53,284.21 438.31,284.21 440.09,284.21 441.87,284.21 443.64,284.21 445.42,284.21 447.20,284.21 448.97,279.26 450.75,279.24 452.53,278.99 454.31,284.21 456.08,278.21 457.86,278.64 459.64,278.93 461.42,284.21 463.19,284.21 464.97,284.21 466.75,284.21 468.52,284.21 470.30,284.21 472.08,284.21 473.86,284.21 475.63,284.21 477.41,284.21 479.19,284.21 480.96,284.21 482.74,284.21 484.52,278.45 486.30,278.95 488.07,279.08 489.85,279.20 491.63,279.60 493.40,279.94 495.18,279.72 496.96,279.95 498.74,279.59 500.51,280.41 502.29,280.64 504.07,280.17 505.84,280.30 507.62,280.49 509.40,280.41 511.18,280.38 512.95,284.21 514.73,284.21 516.51,284.21 518.28,284.21 520.06,279.81 521.84,280.31 523.62,280.19 525.39,280.15 527.17,280.77 528.95,280.94 530.72,281.04 532.50,280.91 534.28,280.78 536.06,281.40 537.83,280.81 539.61,280.70 541.39,281.02 543.16,281.16 544.94,281.23 546.72,281.23 548.50,281.33 550.27,281.24 552.05,284.21 553.83,280.83 555.60,281.05 557.38,284.21 559.16,282.16 560.94,282.16 562.71,280.84 564.49,281.11 566.27,281.11 568.04,281.15 569.82,281.18 571.60,281.03 573.38,281.40 575.15,281.24 576.93,281.32 578.71,281.26 580.48,281.34 582.26,281.48 584.04,284.21 585.82,281.32 587.59,281.29 589.37,281.22 591.15,281.45 592.92,281.13 594.70,281.61 596.48,281.25 598.26,281.83 600.03,282.00 601.81,281.44 603.59,281.57 605.36,281.53 607.14,281.52 608.92,281.94 610.70,281.85 612.47,281.92 614.25,281.93 616.03,281.91 617.81,281.76 619.58,281.64 621.36,281.72 623.14,281.77 624.91,281.83 626.69,282.12 628.47,281.92 630.25,282.04 632.02,281.87 633.80,281.93 635.58,282.09 637.35,282.53 639.13,282.02 640.91,282.00 642.69,281.96 644.46,282.47 646.24,282.36 648.02,282.15 649.79,282.42 651.57,282.03 653.35,282.26 655.13,282.43 656.90,282.25 658.68,282.23 660.46,282.17 662.23,282.36 664.01,282.33 665.79,282.45 667.57,282.22 669.34,282.35 671.12,282.31 672.90,282.30 674.67,282.21 676.45,284.21 678.23,284.21 680.01,284.21 681.78,284.21 683.56,284.21 685.34,284.21 687.11,281.75 688.89,281.76 690.67,281.74 692.45,281.95 694.22,281.92 696.00,282.08" fill="none" stroke="#c2410c" stroke-width="2.4" stroke-linecap="round" stroke-linejoin="round"/>
    <line x1="70" y1="338" x2="92" y2="338" stroke="#2e7d32" stroke-width="3"/><text x="98" y="342" font-size="11" fill="#24384d">DailyAv_Oil, bbl</text><line x1="320" y1="338" x2="342" y2="338" stroke="#1f6fb2" stroke-width="3"/><text x="348" y="342" font-size="11" fill="#24384d">DailyAv_Water, bbl</text><line x1="70" y1="320" x2="92" y2="320" stroke="#c2410c" stroke-width="3"/><text x="98" y="324" font-size="11" fill="#24384d">DailyAv_Gas, Mscf</text>
  </g>
</svg>
