<svg xmlns="http://www.w3.org/2000/svg" width="720" height="360" viewBox="0 0 720 360" role="img" aria-label="Production profile for XE39-1">
  <rect width="100%" height="100%" fill="#ffffff"/>
  <text x="58" y="24" font-family="Inter, Arial, sans-serif" font-size="16" font-weight="700" fill="#102033">Production Profile - XE39-1</text>
  <text x="58" y="39" font-family="Inter, Arial, sans-serif" font-size="11" fill="#607080">1946-05-01 to 1976-04-01 | compact AI Lab SVG</text>
  <g font-family="Inter, Arial, sans-serif">
    <line x1="58" y1="44.00" x2="696" y2="44.00" stroke="#e3eaf1"/><text x="48" y="48.00" text-anchor="end" font-size="10" fill="#607080">216464</text><line x1="58" y1="108.50" x2="696" y2="108.50" stroke="#e3eaf1"/><text x="48" y="112.50" text-anchor="end" font-size="10" fill="#607080">158340</text><line x1="58" y1="173.00" x2="696" y2="173.00" stroke="#e3eaf1"/><text x="48" y="177.00" text-anchor="end" font-size="10" fill="#607080">100215</text><line x1="58" y1="237.50" x2="696" y2="237.50" stroke="#e3eaf1"/><text x="48" y="241.50" text-anchor="end" font-size="10" fill="#607080">42090</text><line x1="58" y1="302.00" x2="696" y2="302.00" stroke="#e3eaf1"/><text x="48" y="306.00" text-anchor="end" font-size="10" fill="#607080">-16034</text>
    <line x1="58" y1="44" x2="58" y2="302" stroke="#8ca0b3"/>
    <line x1="58" y1="302" x2="696" y2="302" stroke="#8ca0b3"/>
    <text x="58" y="326" font-size="10" fill="#607080">1946-05-01</text>
    <text x="696" y="326" text-anchor="end" font-size="10" fill="#607080">1976-04-01</text>
    <text x="18" y="173.0" transform="rotate(-90 18 173.0)" text-anchor="middle" font-size="11" fill="#607080">Production / Rate</text>
    <polyline points="58.00,280.29 59.78,281.22 61.55,280.26 63.33,277.49 65.11,280.25 66.89,279.90 68.66,279.43 70.44,279.53 72.22,279.04 73.99,279.28 75.77,279.40 77.55,279.33 79.33,279.63 81.10,279.04 82.88,277.27 84.66,277.07 86.43,277.18 88.21,275.97 89.99,277.51 91.77,277.11 93.54,277.01 95.32,277.28 97.10,277.12 98.87,277.65 100.65,277.64 102.43,278.19 104.21,278.26 105.98,278.58 107.76,278.14 109.54,277.75 111.31,278.87 113.09,279.22 114.87,278.74 116.65,279.22 118.42,279.55 120.20,279.68 121.98,280.07 123.75,279.92 125.53,279.58 127.31,280.23 129.09,280.78 130.86,280.55 132.64,280.73 134.42,280.84 136.19,281.24 137.97,281.12 139.75,281.45 141.53,281.52 143.30,281.68 145.08,281.90 146.86,282.02 148.64,282.05 150.41,281.53 152.19,282.13 153.97,282.23 155.74,282.56 157.52,282.38 159.30,282.36 161.08,282.47 162.85,282.64 164.63,282.69 166.41,282.40 168.18,282.60 169.96,282.74 171.74,282.34 173.52,282.26 175.29,282.31 177.07,282.36 178.85,282.76 180.62,282.78 182.40,282.80 184.18,282.92 185.96,282.98 187.73,282.83 189.51,282.67 191.29,282.84 193.06,282.88 194.84,282.91 196.62,282.94 198.40,282.99 200.17,283.07 201.95,283.01 203.73,283.10 205.50,283.16 207.28,283.33 209.06,283.41 210.84,283.25 212.61,283.30 214.39,283.26 216.17,283.28 217.94,283.28 219.72,283.31 221.50,283.40 223.28,283.47 225.05,283.30 226.83,283.34 228.61,283.38 230.38,283.33 232.16,283.36 233.94,284.21 235.72,284.21 237.49,283.88 239.27,284.21 241.05,284.21 242.82,284.21 244.60,284.21 246.38,284.21 248.16,284.21 249.93,284.21 251.71,284.21 253.49,284.21 255.26,284.21 257.04,284.21 258.82,283.68 260.60,284.21 262.37,284.21 264.15,284.21 265.93,284.21 267.70,284.21 269.48,284.21 271.26,284.21 273.04,284.21 274.81,284.21 276.59,284.21 278.37,284.21 280.14,284.21 281.92,284.21 283.70,284.21 285.48,284.21 287.25,284.21 289.03,284.21 290.81,284.21 292.58,284.21 294.36,284.21 296.14,284.21 297.92,284.21 299.69,284.21 301.47,284.21 303.25,284.21 305.03,284.21 306.80,284.21 308.58,284.21 310.36,284.21 312.13,284.21 313.91,284.21 315.69,284.21 317.47,284.21 319.24,284.21 321.02,284.21 322.80,284.21 324.57,284.21 326.35,284.21 328.13,284.21 329.91,284.21 331.68,284.21 333.46,284.21 335.24,284.21 337.01,284.21 338.79,284.21 340.57,284.21 342.35,284.21 344.12,284.21 345.90,284.21 347.68,284.21 349.45,284.21 351.23,284.21 353.01,284.21 354.79,284.21 356.56,284.21 358.34,284.21 360.12,284.21 361.89,284.21 363.67,284.21 365.45,284.21 367.23,284.21 369.00,284.21 370.78,284.21 372.56,284.21 374.33,284.21 376.11,284.21 377.89,284.21 379.67,284.21 381.44,284.21 383.22,284.21 385.00,284.21 386.77,284.21 388.55,284.21 390.33,284.21 392.11,284.21 393.88,284.21 395.66,284.21 397.44,284.21 399.21,284.21 400.99,284.21 402.77,284.21 404.55,284.21 406.32,284.21 408.10,284.21 409.88,284.21 411.65,284.21 413.43,284.21 415.21,284.21 416.99,284.21 418.76,284.21 420.54,284.21 422.32,284.21 424.09,284.21 425.87,284.21 427.65,284.21 429.43,284.21 431.20,284.21 432.98,284.21 434.76,284.21 436.53,284.21 438.31,284.21 440.09,284.21 441.87,284.21 443.64,284.21 445.42,284.21 447.20,284.21 448.97,284.21 450.75,284.21 452.53,284.21 454.31,284.21 456.08,284.21 457.86,284.21 459.64,284.21 461.42,284.21 463.19,284.21 464.97,284.21 466.75,284.21 468.52,284.21 470.30,284.21 472.08,284.21 473.86,284.21 475.63,284.21 477.41,284.21 479.19,284.21 480.96,284.21 482.74,284.21 484.52,284.21 486.30,284.21 488.07,284.21 489.85,284.21 491.63,284.21 493.40,284.21 495.18,284.21 496.96,284.21 498.74,284.21 500.51,284.21 502.29,284.21 504.07,284.21 505.84,284.21 507.62,284.21 509.40,284.21 511.18,284.21 512.95,284.21 514.73,284.21 516.51,284.21 518.28,284.21 520.06,284.21 521.84,284.21 523.62,284.21 525.39,284.21 527.17,284.21 528.95,284.21 530.72,284.21 532.50,284.21 534.28,284.21 536.06,284.21 537.83,284.21 539.61,284.21 541.39,284.21 543.16,284.21 544.94,284.21 546.72,284.21 548.50,284.21 550.27,284.21 552.05,284.21 553.83,284.21 555.60,284.21 557.38,284.21 559.16,284.21 560.94,284.21 562.71,284.21 564.49,284.21 566.27,284.21 568.04,284.21 569.82,284.21 571.60,284.21 573.38,284.21 575.15,284.21 576.93,284.21 578.71,284.21 580.48,284.21 582.26,284.21 584.04,284.21 585.82,284.21 587.59,284.21 589.37,284.21 591.15,284.21 592.92,284.21 594.70,284.21 596.48,284.21 598.26,284.21 600.03,284.21 601.81,284.21 603.59,284.21 605.36,284.21 607.14,284.21 608.92,284.21 610.70,284.21 612.47,284.21 614.25,284.21 616.03,284.21 617.81,284.21 619.58,284.21 621.36,284.21 623.14,284.21 624.91,284.21 626.69,284.21 628.47,284.21 630.25,284.21 632.02,284.21 633.80,284.21 635.58,284.21 637.35,284.21 639.13,284.21 640.91,284.21 642.69,284.21 644.46,284.21 646.24,284.21 648.02,284.21 649.79,284.21 651.57,284.21 653.35,284.21 655.13,284.21 656.90,284.21 658.68,284.21 660.46,284.21 662.23,284.21 664.01,284.21 665.79,284.21 667.57,284.21 669.34,284.21 671.12,284.21 672.90,284.21 674.67,284.21 676.45,284.21 678.23,284.21 680.01,284.21 681.78,284.21 683.56,284.21 685.34,284.21 687.11,284.21 688.89,284.21 690.67,284.21 692.45,284.21 694.22,284.21 696.00,284.21" fill="none" stroke="#2e7d32" stroke-width="2.4" stroke-linecap="round" stroke-linejoin="round"/><polyline points="58.00,284.21 59.78,284.21 61.55,284.21 63.33,284.21 65.11,284.21 66.89,284.21 68.66,284.20 70.44,284.21 72.22,284.21 73.99,284.19 75.77,284.21 77.55,284.21 79.33,284.21 81.10,284.21 82.88,284.21 84.66,284.21 86.43,284.20 88.21,284.21 89.99,284.21 91.77,284.21 93.54,284.21 95.32,284.21 97.10,284.21 98.87,284.21 100.65,284.21 102.43,284.21 104.21,284.21 105.98,284.20 107.76,284.20 109.54,284.20 111.31,284.21 113.09,284.21 114.87,284.21 116.65,284.21 118.42,284.21 120.20,284.21 121.98,284.21 123.75,284.21 125.53,284.21 127.31,284.21 129.09,284.19 130.86,284.20 132.64,284.20 134.42,284.21 136.19,284.17 137.97,284.21 139.75,284.20 141.53,284.21 143.30,284.21 145.08,284.20 146.86,284.21 148.64,284.21 150.41,284.21 152.19,284.21 153.97,284.21 155.74,284.20 157.52,284.20 159.30,284.21 161.08,284.20 162.85,284.21 164.63,284.21 166.41,284.21 168.18,284.21 169.96,284.21 171.74,284.21 173.52,284.20 175.29,284.20 177.07,284.21 178.85,284.21 180.62,284.20 182.40,284.21 184.18,284.21 185.96,284.20 187.73,284.20 189.51,284.19 191.29,284.19 193.06,284.19 194.84,284.19 196.62,284.19 198.40,284.20 200.17,284.20 201.95,284.20 203.73,284.20 205.50,284.20 207.28,284.20 209.06,284.20 210.84,284.20 212.61,284.20 214.39,284.20 216.17,284.21 217.94,284.21 219.72,284.20 221.50,284.21 223.28,284.21 225.05,284.20 226.83,284.20 228.61,284.21 230.38,284.21 232.16,284.21 233.94,284.21 235.72,284.21 237.49,284.21 239.27,284.21 241.05,284.21 242.82,284.21 244.60,284.21 246.38,284.21 248.16,284.21 249.93,284.21 251.71,284.21 253.49,284.21 255.26,284.21 257.04,284.21 258.82,284.21 260.60,284.21 262.37,284.21 264.15,284.21 265.93,284.21 267.70,284.21 269.48,284.21 271.26,284.21 273.04,284.21 274.81,284.21 276.59,284.21 278.37,284.21 280.14,284.21 281.92,284.21 283.70,284.21 285.48,284.21 287.25,284.21 289.03,284.21 290.81,284.21 292.58,284.21 294.36,284.21 296.14,284.21 297.92,284.21 299.69,284.21 301.47,284.21 303.25,284.21 305.03,284.21 306.80,284.21 308.58,284.21 310.36,284.21 312.13,284.21 313.91,284.21 315.69,284.21 317.47,284.21 319.24,284.21 321.02,284.21 322.80,284.21 324.57,284.21 326.35,284.21 328.13,284.21 329.91,284.21 331.68,284.21 333.46,284.21 335.24,284.21 337.01,284.21 338.79,284.21 340.57,284.21 342.35,284.21 344.12,284.21 345.90,284.21 347.68,284.21 349.45,284.21 351.23,284.21 353.01,284.21 354.79,284.21 356.56,284.21 358.34,284.21 360.12,284.21 361.89,284.21 363.67,284.21 365.45,284.21 367.23,284.21 369.00,284.21 370.78,284.21 372.56,284.21 374.33,284.21 376.11,284.21 377.89,284.21 379.67,284.21 381.44,284.21 383.22,284.21 385.00,284.21 386.77,284.21 388.55,284.21 390.33,284.21 392.11,284.21 393.88,284.21 395.66,284.21 397.44,284.21 399.21,284.21 400.99,284.21 402.77,284.21 404.55,284.21 406.32,284.21 408.10,284.21 409.88,284.21 411.65,284.21 413.43,284.21 415.21,284.21 416.99,284.21 418.76,284.21 420.54,284.21 422.32,284.21 424.09,284.21 425.87,284.21 427.65,284.21 429.43,284.21 431.20,284.21 432.98,284.21 434.76,284.21 436.53,284.21 438.31,284.21 440.09,284.21 441.87,284.21 443.64,284.21 445.42,284.21 447.20,284.21 448.97,284.21 450.75,284.21 452.53,284.21 454.31,284.21 456.08,284.21 457.86,284.21 459.64,284.21 461.42,284.21 463.19,284.21 464.97,284.21 466.75,284.21 468.52,284.21 470.30,284.21 472.08,284.21 473.86,284.21 475.63,284.21 477.41,284.21 479.19,284.21 480.96,284.21 482.74,284.21 484.52,284.21 486.30,284.21 488.07,284.21 489.85,284.21 491.63,284.21 493.40,284.21 495.18,284.21 496.96,284.21 498.74,284.21 500.51,284.21 502.29,284.21 504.07,284.21 505.84,284.21 507.62,284.21 509.40,284.21 511.18,284.21 512.95,284.21 514.73,284.21 516.51,284.21 518.28,284.21 520.06,284.21 521.84,284.21 523.62,284.21 525.39,284.21 527.17,284.21 528.95,284.21 530.72,284.21 532.50,284.21 534.28,284.21 536.06,284.21 537.83,284.21 539.61,284.21 541.39,284.21 543.16,284.21 544.94,284.21 546.72,284.21 548.50,284.21 550.27,284.21 552.05,284.21 553.83,284.21 555.60,284.21 557.38,284.21 559.16,284.21 560.94,284.21 562.71,284.21 564.49,284.21 566.27,284.21 568.04,284.21 569.82,284.21 571.60,284.21 573.38,284.21 575.15,284.21 576.93,284.21 578.71,284.21 580.48,284.21 582.26,284.21 584.04,284.21 585.82,284.21 587.59,284.21 589.37,284.21 591.15,284.21 592.92,284.21 594.70,284.21 596.48,284.21 598.26,284.21 600.03,284.21 601.81,284.21 603.59,284.21 605.36,284.21 607.14,284.21 608.92,284.21 610.70,284.21 612.47,284.21 614.25,284.21 616.03,284.21 617.81,284.21 619.58,284.21 621.36,284.21 623.14,284.21 624.91,284.21 626.69,284.21 628.47,284.21 630.25,284.21 632.02,284.21 633.80,284.21 635.58,284.21 637.35,284.21 639.13,284.21 640.91,284.21 642.69,284.21 644.46,284.21 646.24,284.21 648.02,284.21 649.79,284.21 651.57,284.21 653.35,284.21 655.13,284.21 656.90,284.21 658.68,284.21 660.46,284.21 662.23,284.21 664.01,284.21 665.79,284.21 667.57,284.21 669.34,284.21 671.12,284.21 672.90,284.21 674.67,284.21 676.45,284.21 678.23,284.21 680.01,284.21 681.78,284.21 683.56,284.21 685.34,284.21 687.11,284.21 688.89,284.21 690.67,284.21 692.45,284.21 694.22,284.21 696.00,284.21" fill="none" stroke="#1f6fb2" stroke-width="2.4" stroke-linecap="round" stroke-linejoin="round"/><polyline points="58.00,283.06 59.78,283.26 61.55,282.92 63.33,282.02 65.11,283.12 66.89,282.41 68.66,281.94 70.44,281.52 72.22,280.99 73.99,280.72 75.77,281.19 77.55,280.20 79.33,279.61 81.10,279.28 82.88,276.93 84.66,277.09 86.43,276.09 88.21,275.96 89.99,276.93 91.77,277.47 93.54,276.92 95.32,277.11 97.10,275.97 98.87,276.52 100.65,276.09 102.43,280.58 104.21,278.59 105.98,278.97 107.76,280.43 109.54,278.54 111.31,279.09 113.09,279.80 114.87,278.96 116.65,280.28 118.42,279.29 120.20,278.34 121.98,276.49 123.75,275.48 125.53,274.30 127.31,276.30 129.09,281.75 130.86,282.79 132.64,283.12 134.42,278.01 136.19,279.22 137.97,275.48 139.75,274.67 141.53,274.71 143.30,275.62 145.08,275.80 146.86,276.19 148.64,275.72 150.41,272.17 152.19,278.78 153.97,279.22 155.74,274.49 157.52,277.20 159.30,277.56 161.08,277.56 162.85,277.57 164.63,276.65 166.41,273.88 168.18,276.09 169.96,277.39 171.74,278.59 173.52,278.61 175.29,278.71 177.07,278.05 178.85,276.85 180.62,276.35 182.40,275.79 184.18,275.86 185.96,278.07 187.73,278.80 189.51,277.66 191.29,278.39 193.06,277.78 194.84,277.92 196.62,278.46 198.40,279.87 200.17,279.65 201.95,277.39 203.73,277.59 205.50,277.07 207.28,277.67 209.06,278.51 210.84,277.16 212.61,277.15 214.39,277.14 216.17,276.72 217.94,277.20 219.72,277.07 221.50,276.61 223.28,276.61 225.05,277.33 226.83,277.23 228.61,277.09 230.38,277.85 232.16,278.28 233.94,284.21 235.72,284.21 237.49,280.61 239.27,284.21 241.05,284.21 242.82,284.21 244.60,284.21 246.38,284.21 248.16,284.21 249.93,284.21 251.71,284.21 253.49,284.21 255.26,284.21 257.04,284.21 258.82,267.43 260.60,284.21 262.37,284.21 264.15,284.21 265.93,284.21 267.70,284.21 269.48,284.21 271.26,284.21 273.04,284.21 274.81,284.21 276.59,284.21 278.37,284.21 280.14,284.21 281.92,284.21 283.70,284.21 285.48,284.21 287.25,284.21 289.03,284.21 290.81,284.21 292.58,284.21 294.36,284.21 296.14,284.21 297.92,284.21 299.69,284.21 301.47,284.21 303.25,284.21 305.03,284.21 306.80,284.21 308.58,284.21 310.36,284.21 312.13,284.21 313.91,284.21 315.69,284.21 317.47,284.21 319.24,284.21 321.02,284.21 322.80,284.21 324.57,284.21 326.35,284.21 328.13,284.21 329.91,284.21 331.68,284.21 333.46,284.21 335.24,284.21 337.01,284.21 338.79,284.21 340.57,284.21 342.35,284.21 344.12,284.21 345.90,284.21 347.68,284.21 349.45,284.21 351.23,284.21 353.01,284.21 354.79,284.21 356.56,284.21 358.34,284.21 360.12,284.21 361.89,284.21 363.67,284.21 365.45,284.21 367.23,284.21 369.00,284.21 370.78,284.21 372.56,284.21 374.33,284.21 376.11,284.21 377.89,284.21 379.67,284.21 381.44,284.21 383.22,284.21 385.00,284.21 386.77,284.21 388.55,284.21 390.33,284.21 392.11,284.21 393.88,284.21 395.66,284.21 397.44,284.21 399.21,284.21 400.99,284.21 402.77,284.21 404.55,284.21 406.32,284.21 408.10,284.21 409.88,284.21 411.65,284.21 413.43,284.21 415.21,284.21 416.99,284.21 418.76,284.21 420.54,284.21 422.32,284.21 424.09,284.21 425.87,284.21 427.65,284.21 429.43,284.21 431.20,284.21 432.98,284.21 434.76,284.21 436.53,284.21 438.31,284.21 440.09,284.21 441.87,284.21 443.64,284.21 445.42,284.21 447.20,284.21 448.97,284.21 450.75,284.21 452.53,284.21 454.31,284.21 456.08,284.21 457.86,284.21 459.64,284.21 461.42,284.21 463.19,284.21 464.97,284.21 466.75,284.21 468.52,284.21 470.30,284.21 472.08,284.21 473.86,284.21 475.63,284.21 477.41,284.21 479.19,284.21 480.96,284.21 482.74,284.21 484.52,284.21 486.30,284.21 488.07,284.21 489.85,284.21 491.63,284.21 493.40,284.21 495.18,284.21 496.96,284.21 498.74,284.21 500.51,284.21 502.29,284.21 504.07,284.21 505.84,284.21 507.62,284.21 509.40,284.21 511.18,284.21 512.95,284.21 514.73,284.21 516.51,284.21 518.28,284.21 520.06,284.21 521.84,284.21 523.62,284.21 525.39,284.21 527.17,284.21 528.95,284.21 530.72,284.21 532.50,284.21 534.28,284.21 536.06,284.21 537.83,284.21 539.61,284.21 541.39,284.21 543.16,284.21 544.94,284.21 546.72,284.21 548.50,284.21 550.27,284.21 552.05,284.21 553.83,284.21 555.60,284.21 557.38,284.21 559.16,284.21 560.94,284.21 562.71,284.21 564.49,284.21 566.27,284.21 568.04,284.21 569.82,284.21 571.60,284.21 573.38,284.21 575.15,284.21 576.93,284.21 578.71,284.21 580.48,284.21 582.26,284.21 584.04,284.21 585.82,284.21 587.59,284.21 589.37,284.21 591.15,284.21 592.92,284.21 594.70,284.21 596.48,284.21 598.26,284.21 600.03,284.21 601.81,284.21 603.59,284.21 605.36,284.21 607.14,284.21 608.92,284.21 610.70,284.21 612.47,284.21 614.25,284.21 616.03,284.21 617.81,284.21 619.58,284.21 621.36,284.21 623.14,284.21 624.91,284.21 626.69,284.21 628.47,284.21 630.25,284.21 632.02,284.21 633.80,284.21 635.58,284.21 637.35,284.21 639.13,284.21 640.91,284.21 642.69,284.21 644.46,284.21 646.24,284.21 648.02,284.21 649.79,284.21 651.57,284.21 653.35,284.21 655.13,284.21 656.90,284.21 658.68,284.21 660.46,284.21 662.23,284.21 664.01,284.21 665.79,284.21 667.57,284.21 669.34,284.21 671.12,284.21 672.90,284.21 674.67,284.21 676.45,284.21 678.23,284.21 680.01,284.21 681.78,284.21 683.56,284.21 685.34,284.21 687.11,284.21 688.89,284.21 690.67,284.21 692.45,284.21 694.22,284.21 696.00,284.21" fill="none" stroke="#c2410c" stroke-width="2.4" stroke-linecap="round" stroke-linejoin="round"/><polyline points="58.00,217.54 59.78,194.64 61.55,177.63 63.33,129.62 65.11,165.43 66.89,155.05 68.66,140.87 70.44,139.28 72.22,124.06 73.99,146.17 75.77,140.00 77.55,137.75 79.33,142.40 81.10,139.50 82.88,69.27 84.66,62.94 86.43,101.48 88.21,61.79 89.99,103.30 91.77,128.13 93.54,97.00 95.32,83.21 97.10,128.34 98.87,120.23 100.65,87.07 102.43,139.78 104.21,105.87 105.98,120.93 107.76,132.49 109.54,109.87 111.31,124.21 113.09,129.58 114.87,114.79 116.65,144.59 118.42,139.97 120.20,180.11 121.98,155.86 123.75,185.70 125.53,140.90 127.31,160.85 129.09,184.73 130.86,170.72 132.64,179.81 134.42,179.70 136.19,195.09 137.97,197.64 139.75,198.60 141.53,203.63 143.30,205.78 145.08,215.10 146.86,216.40 148.64,219.61 150.41,214.60 152.19,219.86 153.97,224.85 155.74,233.18 157.52,227.60 159.30,232.41 161.08,230.44 162.85,237.13 164.63,237.33 166.41,275.20 168.18,240.70 169.96,238.88 171.74,228.10 173.52,223.91 175.29,227.20 177.07,226.85 178.85,243.74 180.62,244.23 182.40,243.43 184.18,257.24 185.96,246.03 187.73,242.77 189.51,273.47 191.29,246.03 193.06,250.94 194.84,244.00 196.62,248.77 198.40,246.51 200.17,248.87 201.95,250.60 203.73,249.77 205.50,266.45 207.28,269.25 209.06,263.56 210.84,254.44 212.61,256.21 214.39,255.80 216.17,255.37 217.94,258.28 219.72,258.21 221.50,260.71 223.28,263.48 225.05,258.02 226.83,258.16 228.61,258.52 230.38,258.00 232.16,268.11 233.94,284.21 235.72,284.21 237.49,282.89 239.27,284.21 241.05,284.21 242.82,284.21 244.60,284.21 246.38,284.21 248.16,284.21 249.93,284.21 251.71,284.21 253.49,284.21 255.26,284.21 257.04,284.21 258.82,282.62 260.60,284.21 262.37,284.21 264.15,284.21 265.93,284.21 267.70,284.21 269.48,284.21 271.26,284.21 273.04,284.21 274.81,284.21 276.59,284.21 278.37,284.21 280.14,284.21 281.92,284.21 283.70,284.21 285.48,284.21 287.25,284.21 289.03,284.21 290.81,284.21 292.58,284.21 294.36,284.21 296.14,284.21 297.92,284.21 299.69,284.21 301.47,284.21 303.25,284.21 305.03,284.21 306.80,284.21 308.58,284.21 310.36,284.21 312.13,284.21 313.91,284.21 315.69,284.21 317.47,284.21 319.24,284.21 321.02,284.21 322.80,284.21 324.57,284.21 326.35,284.21 328.13,284.21 329.91,284.21 331.68,284.21 333.46,284.21 335.24,284.21 337.01,284.21 338.79,284.21 340.57,284.21 342.35,284.21 344.12,284.21 345.90,284.21 347.68,284.21 349.45,284.21 351.23,284.21 353.01,284.21 354.79,284.21 356.56,284.21 358.34,284.21 360.12,284.21 361.89,284.21 363.67,284.21 365.45,284.21 367.23,284.21 369.00,284.21 370.78,284.21 372.56,284.21 374.33,284.21 376.11,284.21 377.89,284.21 379.67,284.21 381.44,284.21 383.22,284.21 385.00,284.21 386.77,284.21 388.55,284.21 390.33,284.21 392.11,284.21 393.88,284.21 395.66,284.21 397.44,284.21 399.21,284.21 400.99,284.21 402.77,284.21 404.55,284.21 406.32,284.21 408.10,284.21 409.88,284.21 411.65,284.21 413.43,284.21 415.21,284.21 416.99,284.21 418.76,284.21 420.54,284.21 422.32,284.21 424.09,284.21 425.87,284.21 427.65,284.21 429.43,284.21 431.20,284.21 432.98,284.21 434.76,284.21 436.53,284.21 438.31,284.21 440.09,284.21 441.87,284.21 443.64,284.21 445.42,284.21 447.20,284.21 448.97,284.21 450.75,284.21 452.53,284.21 454.31,284.21 456.08,284.21 457.86,284.21 459.64,284.21 461.42,284.21 463.19,284.21 464.97,284.21 466.75,284.21 468.52,284.21 470.30,284.21 472.08,284.21 473.86,284.21 475.63,284.21 477.41,284.21 479.19,284.21 480.96,284.21 482.74,284.21 484.52,284.21 486.30,284.21 488.07,284.21 489.85,284.21 491.63,284.21 493.40,284.21 495.18,284.21 496.96,284.21 498.74,284.21 500.51,284.21 502.29,284.21 504.07,284.21 505.84,284.21 507.62,284.21 509.40,284.21 511.18,284.21 512.95,284.21 514.73,284.21 516.51,284.21 518.28,284.21 520.06,284.21 521.84,284.21 523.62,284.21 525.39,284.21 527.17,284.21 528.95,284.21 530.72,284.21 532.50,284.21 534.28,284.21 536.06,284.21 537.83,284.21 539.61,284.21 541.39,284.21 543.16,284.21 544.94,284.21 546.72,284.21 548.50,284.21 550.27,284.21 552.05,284.21 553.83,284.21 555.60,284.21 557.38,284.21 559.16,284.21 560.94,284.21 562.71,284.21 564.49,284.21 566.27,284.21 568.04,284.21 569.82,284.21 571.60,284.21 573.38,284.21 575.15,284.21 576.93,284.21 578.71,284.21 580.48,284.21 582.26,284.21 584.04,284.21 585.82,284.21 587.59,284.21 589.37,284.21 591.15,284.21 592.92,284.21 594.70,284.21 596.48,284.21 598.26,284.21 600.03,284.21 601.81,284.21 603.59,284.21 605.36,284.21 607.14,284.21 608.92,284.21 610.70,284.21 612.47,284.21 614.25,284.21 616.03,284.21 617.81,284.21 619.58,284.21 621.36,284.21 623.14,284.21 624.91,284.21 626.69,284.21 628.47,284.21 630.25,284.21 632.02,284.21 633.80,284.21 635.58,284.21 637.35,284.21 639.13,284.21 640.91,284.21 642.69,284.21 644.46,284.21 646.24,284.21 648.02,284.21 649.79,284.21 651.57,284.21 653.35,284.21 655.13,284.21 656.90,284.21 658.68,284.21 660.46,284.21 662.23,284.21 664.01,284.21 665.79,284.21 667.57,284.21 669.34,284.21 671.12,284.21 672.90,284.21 674.67,284.21 676.45,284.21 678.23,284.21 680.01,284.21 681.78,284.21 683.56,284.21 685.34,284.21 687.11,284.21 688.89,284.21 690.67,284.21 692.45,284.21 694.22,284.21 696.00,284.21" fill="none" stroke="#2e7d32" stroke-width="2.4" stroke-linecap="round" stroke-linejoin="round"/>
    <line x1="70" y1="338" x2="92" y2="338" stroke="#2e7d32" stroke-width="3"/><text x="98" y="342" font-size="11" fill="#24384d">DailyAv_Oil, bbl</text><line x1="320" y1="338" x2="342" y2="338" stroke="#1f6fb2" stroke-width="3"/><text x="348" y="342" font-size="11" fill="#24384d">DailyAv_Water, bbl</text><line x1="70" y1="320" x2="92" y2="320" stroke="#c2410c" stroke-width="3"/><text x="98" y="324" font-size="11" fill="#24384d">DailyAv_Gas, Mscf</text><line x1="320" y1="320" x2="342" y2="320" stroke="#2e7d32" stroke-width="3"/><text x="348" y="324" font-size="11" fill="#24384d">Monthly_Oil, bbl</text>
  </g>
</svg>
