<svg xmlns="http://www.w3.org/2000/svg" width="720" height="360" viewBox="0 0 720 360" role="img" aria-label="Production profile for XE15-1">
  <rect width="100%" height="100%" fill="#ffffff"/>
  <text x="58" y="24" font-family="Inter, Arial, sans-serif" font-size="16" font-weight="700" fill="#102033">Production Profile - XE15-1</text>
  <text x="58" y="39" font-family="Inter, Arial, sans-serif" font-size="11" fill="#607080">1946-05-01 to 1976-04-01 | compact AI Lab SVG</text>
  <g font-family="Inter, Arial, sans-serif">
    <line x1="58" y1="44.00" x2="696" y2="44.00" stroke="#e3eaf1"/><text x="48" y="48.00" text-anchor="end" font-size="10" fill="#607080">13836</text><line x1="58" y1="108.50" x2="696" y2="108.50" stroke="#e3eaf1"/><text x="48" y="112.50" text-anchor="end" font-size="10" fill="#607080">10121</text><line x1="58" y1="173.00" x2="696" y2="173.00" stroke="#e3eaf1"/><text x="48" y="177.00" text-anchor="end" font-size="10" fill="#607080">6406</text><line x1="58" y1="237.50" x2="696" y2="237.50" stroke="#e3eaf1"/><text x="48" y="241.50" text-anchor="end" font-size="10" fill="#607080">2690</text><line x1="58" y1="302.00" x2="696" y2="302.00" stroke="#e3eaf1"/><text x="48" y="306.00" text-anchor="end" font-size="10" fill="#607080">-1025</text>
    <line x1="58" y1="44" x2="58" y2="302" stroke="#8ca0b3"/>
    <line x1="58" y1="302" x2="696" y2="302" stroke="#8ca0b3"/>
    <text x="58" y="326" font-size="10" fill="#607080">1946-05-01</text>
    <text x="696" y="326" text-anchor="end" font-size="10" fill="#607080">1976-04-01</text>
    <text x="18" y="173.0" transform="rotate(-90 18 173.0)" text-anchor="middle" font-size="11" fill="#607080">Production / Rate</text>
    <polyline points="58.00,215.02 59.78,239.17 61.55,230.46 63.33,216.48 65.11,231.51 66.89,225.71 68.66,215.41 70.44,216.16 72.22,210.78 73.99,214.91 75.77,216.92 77.55,189.68 79.33,212.87 81.10,172.63 82.88,178.82 84.66,181.78 86.43,185.28 88.21,185.27 89.99,191.03 91.77,181.81 93.54,183.81 95.32,185.95 97.10,181.36 98.87,194.40 100.65,190.40 102.43,195.29 104.21,212.26 105.98,170.92 107.76,200.60 109.54,201.40 111.31,203.47 113.09,203.57 114.87,200.30 116.65,210.47 118.42,214.14 120.20,211.97 121.98,216.22 123.75,207.96 125.53,207.39 127.31,208.45 129.09,219.21 130.86,218.28 132.64,222.19 134.42,223.84 136.19,233.67 137.97,231.50 139.75,229.12 141.53,231.57 143.30,233.76 145.08,234.30 146.86,235.16 148.64,237.67 150.41,237.19 152.19,238.79 153.97,240.15 155.74,243.68 157.52,242.66 159.30,239.59 161.08,243.06 162.85,244.17 164.63,245.35 166.41,237.90 168.18,237.43 169.96,238.85 171.74,240.95 173.52,243.41 175.29,245.66 177.07,246.24 178.85,248.63 180.62,248.14 182.40,243.25 184.18,246.11 185.96,250.05 187.73,251.47 189.51,252.38 191.29,252.22 193.06,252.36 194.84,250.29 196.62,249.14 198.40,251.01 200.17,251.41 201.95,256.27 203.73,254.88 205.50,257.55 207.28,261.00 209.06,261.21 210.84,261.78 212.61,259.12 214.39,256.83 216.17,258.50 217.94,257.39 219.72,258.10 221.50,259.28 223.28,262.47 225.05,261.82 226.83,263.07 228.61,263.52 230.38,264.75 232.16,263.58 233.94,271.05 235.72,275.88 237.49,278.79 239.27,253.09 241.05,276.49 242.82,276.00 244.60,281.67 246.38,284.21 248.16,267.08 249.93,271.20 251.71,284.21 253.49,284.21 255.26,270.72 257.04,265.96 258.82,266.94 260.60,284.21 262.37,284.21 264.15,284.21 265.93,284.21 267.70,284.21 269.48,284.21 271.26,284.21 273.04,284.21 274.81,284.21 276.59,284.21 278.37,284.21 280.14,284.21 281.92,284.21 283.70,284.21 285.48,284.21 287.25,284.21 289.03,284.21 290.81,277.72 292.58,284.21 294.36,284.21 296.14,284.21 297.92,284.21 299.69,284.21 301.47,284.21 303.25,284.21 305.03,284.21 306.80,284.21 308.58,284.21 310.36,284.21 312.13,284.21 313.91,284.21 315.69,284.21 317.47,284.21 319.24,284.21 321.02,284.21 322.80,284.21 324.57,284.21 326.35,284.21 328.13,284.21 329.91,284.21 331.68,284.21 333.46,284.21 335.24,284.21 337.01,284.21 338.79,284.21 340.57,284.21 342.35,284.21 344.12,284.21 345.90,284.21 347.68,284.21 349.45,284.21 351.23,284.21 353.01,284.21 354.79,284.21 356.56,284.21 358.34,284.21 360.12,284.21 361.89,284.21 363.67,284.21 365.45,284.21 367.23,284.21 369.00,284.21 370.78,284.21 372.56,284.21 374.33,284.21 376.11,284.21 377.89,284.21 379.67,284.21 381.44,284.21 383.22,284.21 385.00,284.21 386.77,284.21 388.55,284.21 390.33,284.21 392.11,284.21 393.88,284.21 395.66,284.21 397.44,284.21 399.21,284.21 400.99,284.21 402.77,284.21 404.55,284.21 406.32,284.21 408.10,284.21 409.88,284.21 411.65,284.21 413.43,284.21 415.21,284.21 416.99,284.21 418.76,284.21 420.54,284.21 422.32,284.21 424.09,284.21 425.87,284.21 427.65,284.21 429.43,284.21 431.20,284.21 432.98,284.21 434.76,284.21 436.53,284.21 438.31,284.21 440.09,284.21 441.87,284.21 443.64,284.21 445.42,284.21 447.20,284.21 448.97,284.21 450.75,284.21 452.53,284.21 454.31,284.21 456.08,284.21 457.86,284.21 459.64,284.21 461.42,284.21 463.19,284.21 464.97,284.21 466.75,284.21 468.52,284.21 470.30,284.21 472.08,284.21 473.86,284.21 475.63,284.21 477.41,284.21 479.19,284.21 480.96,284.21 482.74,284.21 484.52,284.21 486.30,284.21 488.07,284.21 489.85,284.21 491.63,284.21 493.40,284.21 495.18,284.21 496.96,284.21 498.74,284.21 500.51,284.21 502.29,284.21 504.07,284.21 505.84,284.21 507.62,284.21 509.40,284.21 511.18,284.21 512.95,284.21 514.73,284.21 516.51,284.21 518.28,284.21 520.06,284.21 521.84,284.21 523.62,284.21 525.39,284.21 527.17,284.21 528.95,284.21 530.72,284.21 532.50,284.21 534.28,284.21 536.06,284.21 537.83,284.21 539.61,284.21 541.39,284.21 543.16,284.21 544.94,284.21 546.72,284.21 548.50,284.21 550.27,284.21 552.05,284.21 553.83,284.21 555.60,284.21 557.38,284.21 559.16,284.21 560.94,284.21 562.71,284.21 564.49,284.21 566.27,284.21 568.04,284.21 569.82,284.21 571.60,284.21 573.38,284.21 575.15,284.21 576.93,284.21 578.71,284.21 580.48,284.21 582.26,284.21 584.04,284.21 585.82,284.21 587.59,284.21 589.37,284.21 591.15,284.21 592.92,284.21 594.70,284.21 596.48,284.21 598.26,284.21 600.03,284.21 601.81,284.21 603.59,284.21 605.36,284.21 607.14,284.21 608.92,284.21 610.70,284.21 612.47,284.21 614.25,284.21 616.03,284.21 617.81,284.21 619.58,284.21 621.36,284.21 623.14,284.21 624.91,284.21 626.69,284.21 628.47,284.21 630.25,284.21 632.02,284.21 633.80,284.21 635.58,284.21 637.35,284.21 639.13,284.21 640.91,284.21 642.69,284.21 644.46,284.21 646.24,284.21 648.02,284.21 649.79,284.21 651.57,284.21 653.35,284.21 655.13,284.21 656.90,284.21 658.68,284.21 660.46,284.21 662.23,284.21 664.01,284.21 665.79,284.21 667.57,284.21 669.34,284.21 671.12,284.21 672.90,284.21 674.67,284.21 676.45,284.21 678.23,284.21 680.01,284.21 681.78,284.21 683.56,284.21 685.34,284.21 687.11,284.21 688.89,284.21 690.67,284.21 692.45,284.21 694.22,284.21 696.00,284.21" fill="none" stroke="#2e7d32" stroke-width="2.4" stroke-linecap="round" stroke-linejoin="round"/><polyline points="58.00,284.21 59.78,284.21 61.55,284.21 63.33,284.21 65.11,284.21 66.89,284.18 68.66,284.21 70.44,284.19 72.22,284.21 73.99,284.14 75.77,284.21 77.55,284.21 79.33,284.21 81.10,284.21 82.88,284.21 84.66,284.21 86.43,284.21 88.21,284.21 89.99,284.21 91.77,284.21 93.54,283.08 95.32,284.00 97.10,284.21 98.87,284.21 100.65,284.21 102.43,284.21 104.21,284.05 105.98,284.21 107.76,284.21 109.54,284.12 111.31,284.21 113.09,284.21 114.87,284.21 116.65,284.21 118.42,284.21 120.20,284.21 121.98,284.21 123.75,284.21 125.53,284.21 127.31,284.21 129.09,284.21 130.86,284.21 132.64,284.21 134.42,283.96 136.19,284.21 137.97,283.47 139.75,284.21 141.53,283.73 143.30,284.21 145.08,284.21 146.86,284.21 148.64,284.21 150.41,284.21 152.19,284.21 153.97,284.14 155.74,284.14 157.52,284.00 159.30,284.08 161.08,283.66 162.85,284.11 164.63,284.07 166.41,284.02 168.18,284.21 169.96,284.11 171.74,284.03 173.52,284.03 175.29,283.95 177.07,284.11 178.85,284.03 180.62,284.21 182.40,283.91 184.18,284.05 185.96,283.59 187.73,283.28 189.51,284.10 191.29,283.53 193.06,283.53 194.84,283.42 196.62,283.48 198.40,283.66 200.17,283.86 201.95,283.04 203.73,283.71 205.50,283.87 207.28,283.62 209.06,283.36 210.84,283.58 212.61,283.48 214.39,283.48 216.17,283.60 217.94,283.72 219.72,283.93 221.50,283.91 223.28,282.94 225.05,283.10 226.83,283.03 228.61,283.08 230.38,282.60 232.16,283.62 233.94,283.58 235.72,284.19 237.49,284.19 239.27,283.74 241.05,284.04 242.82,283.99 244.60,284.17 246.38,284.21 248.16,283.97 249.93,284.12 251.71,284.21 253.49,284.21 255.26,284.13 257.04,283.97 258.82,284.11 260.60,284.21 262.37,284.21 264.15,284.21 265.93,284.21 267.70,284.21 269.48,284.21 271.26,284.21 273.04,284.21 274.81,284.21 276.59,284.21 278.37,284.21 280.14,284.21 281.92,284.21 283.70,284.21 285.48,284.21 287.25,284.21 289.03,284.21 290.81,284.12 292.58,284.21 294.36,284.21 296.14,284.21 297.92,284.21 299.69,284.21 301.47,284.21 303.25,284.21 305.03,284.21 306.80,284.21 308.58,284.21 310.36,284.21 312.13,284.21 313.91,284.21 315.69,284.21 317.47,284.21 319.24,284.21 321.02,284.21 322.80,284.21 324.57,284.21 326.35,284.21 328.13,284.21 329.91,284.21 331.68,284.21 333.46,284.21 335.24,284.21 337.01,284.21 338.79,284.21 340.57,284.21 342.35,284.21 344.12,284.21 345.90,284.21 347.68,284.21 349.45,284.21 351.23,284.21 353.01,284.21 354.79,284.21 356.56,284.21 358.34,284.21 360.12,284.21 361.89,284.21 363.67,284.21 365.45,284.21 367.23,284.21 369.00,284.21 370.78,284.21 372.56,284.21 374.33,284.21 376.11,284.21 377.89,284.21 379.67,284.21 381.44,284.21 383.22,284.21 385.00,284.21 386.77,284.21 388.55,284.21 390.33,284.21 392.11,284.21 393.88,284.21 395.66,284.21 397.44,284.21 399.21,284.21 400.99,284.21 402.77,284.21 404.55,284.21 406.32,284.21 408.10,284.21 409.88,284.21 411.65,284.21 413.43,284.21 415.21,284.21 416.99,284.21 418.76,284.21 420.54,284.21 422.32,284.21 424.09,284.21 425.87,284.21 427.65,284.21 429.43,284.21 431.20,284.21 432.98,284.21 434.76,284.21 436.53,284.21 438.31,284.21 440.09,284.21 441.87,284.21 443.64,284.21 445.42,284.21 447.20,284.21 448.97,284.21 450.75,284.21 452.53,284.21 454.31,284.21 456.08,284.21 457.86,284.21 459.64,284.21 461.42,284.21 463.19,284.21 464.97,284.21 466.75,284.21 468.52,284.21 470.30,284.21 472.08,284.21 473.86,284.21 475.63,284.21 477.41,284.21 479.19,284.21 480.96,284.21 482.74,284.21 484.52,284.21 486.30,284.21 488.07,284.21 489.85,284.21 491.63,284.21 493.40,284.21 495.18,284.21 496.96,284.21 498.74,284.21 500.51,284.21 502.29,284.21 504.07,284.21 505.84,284.21 507.62,284.21 509.40,284.21 511.18,284.21 512.95,284.21 514.73,284.21 516.51,284.21 518.28,284.21 520.06,284.21 521.84,284.21 523.62,284.21 525.39,284.21 527.17,284.21 528.95,284.21 530.72,284.21 532.50,284.21 534.28,284.21 536.06,284.21 537.83,284.21 539.61,284.21 541.39,284.21 543.16,284.21 544.94,284.21 546.72,284.21 548.50,284.21 550.27,284.21 552.05,284.21 553.83,284.21 555.60,284.21 557.38,284.21 559.16,284.21 560.94,284.21 562.71,284.21 564.49,284.21 566.27,284.21 568.04,284.21 569.82,284.21 571.60,284.21 573.38,284.21 575.15,284.21 576.93,284.21 578.71,284.21 580.48,284.21 582.26,284.21 584.04,284.21 585.82,284.21 587.59,284.21 589.37,284.21 591.15,284.21 592.92,284.21 594.70,284.21 596.48,284.21 598.26,284.21 600.03,284.21 601.81,284.21 603.59,284.21 605.36,284.21 607.14,284.21 608.92,284.21 610.70,284.21 612.47,284.21 614.25,284.21 616.03,284.21 617.81,284.21 619.58,284.21 621.36,284.21 623.14,284.21 624.91,284.21 626.69,284.21 628.47,284.21 630.25,284.21 632.02,284.21 633.80,284.21 635.58,284.21 637.35,284.21 639.13,284.21 640.91,284.21 642.69,284.21 644.46,284.21 646.24,284.21 648.02,284.21 649.79,284.21 651.57,284.21 653.35,284.21 655.13,284.21 656.90,284.21 658.68,284.21 660.46,284.21 662.23,284.21 664.01,284.21 665.79,284.21 667.57,284.21 669.34,284.21 671.12,284.21 672.90,284.21 674.67,284.21 676.45,284.21 678.23,284.21 680.01,284.21 681.78,284.21 683.56,284.21 685.34,284.21 687.11,284.21 688.89,284.21 690.67,284.21 692.45,284.21 694.22,284.21 696.00,284.21" fill="none" stroke="#1f6fb2" stroke-width="2.4" stroke-linecap="round" stroke-linejoin="round"/><polyline points="58.00,266.23 59.78,268.99 61.55,265.54 63.33,258.27 65.11,270.51 66.89,258.64 68.66,260.94 70.44,260.96 72.22,254.08 73.99,252.02 75.77,253.39 77.55,227.21 79.33,229.47 81.10,196.72 82.88,192.17 84.66,211.35 86.43,208.74 88.21,221.58 89.99,216.03 91.77,218.39 93.54,225.46 95.32,220.50 97.10,200.52 98.87,203.95 100.65,233.18 102.43,256.27 104.21,255.23 105.98,227.79 107.76,251.14 109.54,235.38 111.31,255.79 113.09,251.43 114.87,247.21 116.65,242.26 118.42,223.22 120.20,239.07 121.98,215.39 123.75,173.61 125.53,174.00 127.31,204.02 129.09,153.17 130.86,231.31 132.64,61.79 134.42,194.36 136.19,143.21 137.97,159.20 139.75,222.23 141.53,137.24 143.30,154.30 145.08,145.93 146.86,147.78 148.64,145.06 150.41,123.75 152.19,105.17 153.97,119.26 155.74,132.53 157.52,161.77 159.30,180.80 161.08,187.75 162.85,187.02 164.63,171.95 166.41,130.84 168.18,168.87 169.96,203.66 171.74,205.48 173.52,212.04 175.29,199.76 177.07,192.12 178.85,183.47 180.62,183.92 182.40,163.10 184.18,183.85 185.96,205.87 187.73,208.79 189.51,185.80 191.29,205.81 193.06,204.57 194.84,199.01 196.62,214.93 198.40,215.53 200.17,207.15 201.95,214.33 203.73,204.26 205.50,198.19 207.28,196.65 209.06,204.67 210.84,196.97 212.61,189.94 214.39,191.89 216.17,192.47 217.94,195.88 219.72,195.63 221.50,207.70 223.28,192.82 225.05,192.04 226.83,198.90 228.61,201.60 230.38,198.58 232.16,200.93 233.94,226.56 235.72,246.75 237.49,267.66 239.27,165.48 241.05,247.75 242.82,238.53 244.60,271.41 246.38,284.21 248.16,217.70 249.93,213.01 251.71,284.21 253.49,284.21 255.26,215.80 257.04,165.94 258.82,211.00 260.60,284.21 262.37,284.21 264.15,284.21 265.93,284.21 267.70,284.21 269.48,284.21 271.26,284.21 273.04,284.21 274.81,284.21 276.59,284.21 278.37,284.21 280.14,284.21 281.92,284.21 283.70,284.21 285.48,284.21 287.25,284.21 289.03,284.21 290.81,241.84 292.58,284.21 294.36,284.21 296.14,284.21 297.92,284.21 299.69,284.21 301.47,284.21 303.25,284.21 305.03,284.21 306.80,284.21 308.58,284.21 310.36,284.21 312.13,284.21 313.91,284.21 315.69,284.21 317.47,284.21 319.24,284.21 321.02,284.21 322.80,284.21 324.57,284.21 326.35,284.21 328.13,284.21 329.91,284.21 331.68,284.21 333.46,284.21 335.24,284.21 337.01,284.21 338.79,284.21 340.57,284.21 342.35,284.21 344.12,284.21 345.90,284.21 347.68,284.21 349.45,284.21 351.23,284.21 353.01,284.21 354.79,284.21 356.56,284.21 358.34,284.21 360.12,284.21 361.89,284.21 363.67,284.21 365.45,284.21 367.23,284.21 369.00,284.21 370.78,284.21 372.56,284.21 374.33,284.21 376.11,284.21 377.89,284.21 379.67,284.21 381.44,284.21 383.22,284.21 385.00,284.21 386.77,284.21 388.55,284.21 390.33,284.21 392.11,284.21 393.88,284.21 395.66,284.21 397.44,284.21 399.21,284.21 400.99,284.21 402.77,284.21 404.55,284.21 406.32,284.21 408.10,284.21 409.88,284.21 411.65,284.21 413.43,284.21 415.21,284.21 416.99,284.21 418.76,284.21 420.54,284.21 422.32,284.21 424.09,284.21 425.87,284.21 427.65,284.21 429.43,284.21 431.20,284.21 432.98,284.21 434.76,284.21 436.53,284.21 438.31,284.21 440.09,284.21 441.87,284.21 443.64,284.21 445.42,284.21 447.20,284.21 448.97,284.21 450.75,284.21 452.53,284.21 454.31,284.21 456.08,284.21 457.86,284.21 459.64,284.21 461.42,284.21 463.19,284.21 464.97,284.21 466.75,284.21 468.52,284.21 470.30,284.21 472.08,284.21 473.86,284.21 475.63,284.21 477.41,284.21 479.19,284.21 480.96,284.21 482.74,284.21 484.52,284.21 486.30,284.21 488.07,284.21 489.85,284.21 491.63,284.21 493.40,284.21 495.18,284.21 496.96,284.21 498.74,284.21 500.51,284.21 502.29,284.21 504.07,284.21 505.84,284.21 507.62,284.21 509.40,284.21 511.18,284.21 512.95,284.21 514.73,284.21 516.51,284.21 518.28,284.21 520.06,284.21 521.84,284.21 523.62,284.21 525.39,284.21 527.17,284.21 528.95,284.21 530.72,284.21 532.50,284.21 534.28,284.21 536.06,284.21 537.83,284.21 539.61,284.21 541.39,284.21 543.16,284.21 544.94,284.21 546.72,284.21 548.50,284.21 550.27,284.21 552.05,284.21 553.83,284.21 555.60,284.21 557.38,284.21 559.16,284.21 560.94,284.21 562.71,284.21 564.49,284.21 566.27,284.21 568.04,284.21 569.82,284.21 571.60,284.21 573.38,284.21 575.15,284.21 576.93,284.21 578.71,284.21 580.48,284.21 582.26,284.21 584.04,284.21 585.82,284.21 587.59,284.21 589.37,284.21 591.15,284.21 592.92,284.21 594.70,284.21 596.48,284.21 598.26,284.21 600.03,284.21 601.81,284.21 603.59,284.21 605.36,284.21 607.14,284.21 608.92,284.21 610.70,284.21 612.47,284.21 614.25,284.21 616.03,284.21 617.81,284.21 619.58,284.21 621.36,284.21 623.14,284.21 624.91,284.21 626.69,284.21 628.47,284.21 630.25,284.21 632.02,284.21 633.80,284.21 635.58,284.21 637.35,284.21 639.13,284.21 640.91,284.21 642.69,284.21 644.46,284.21 646.24,284.21 648.02,284.21 649.79,284.21 651.57,284.21 653.35,284.21 655.13,284.21 656.90,284.21 658.68,284.21 660.46,284.21 662.23,284.21 664.01,284.21 665.79,284.21 667.57,284.21 669.34,284.21 671.12,284.21 672.90,284.21 674.67,284.21 676.45,284.21 678.23,284.21 680.01,284.21 681.78,284.21 683.56,284.21 685.34,284.21 687.11,284.21 688.89,284.21 690.67,284.21 692.45,284.21 694.22,284.21 696.00,284.21" fill="none" stroke="#c2410c" stroke-width="2.4" stroke-linecap="round" stroke-linejoin="round"/>
    <line x1="70" y1="338" x2="92" y2="338" stroke="#2e7d32" stroke-width="3"/><text x="98" y="342" font-size="11" fill="#24384d">DailyAv_Oil, bbl</text><line x1="320" y1="338" x2="342" y2="338" stroke="#1f6fb2" stroke-width="3"/><text x="348" y="342" font-size="11" fill="#24384d">DailyAv_Water, bbl</text><line x1="70" y1="320" x2="92" y2="320" stroke="#c2410c" stroke-width="3"/><text x="98" y="324" font-size="11" fill="#24384d">DailyAv_Gas, Mscf</text>
  </g>
</svg>
