<svg xmlns="http://www.w3.org/2000/svg" width="720" height="360" viewBox="0 0 720 360" role="img" aria-label="Production profile for XE90-1">
  <rect width="100%" height="100%" fill="#ffffff"/>
  <text x="58" y="24" font-family="Inter, Arial, sans-serif" font-size="16" font-weight="700" fill="#102033">Production Profile - XE90-1</text>
  <text x="58" y="39" font-family="Inter, Arial, sans-serif" font-size="11" fill="#607080">1949-09-01 to 1979-08-01 | compact AI Lab SVG</text>
  <g font-family="Inter, Arial, sans-serif">
    <line x1="58" y1="44.00" x2="696" y2="44.00" stroke="#e3eaf1"/><text x="48" y="48.00" text-anchor="end" font-size="10" fill="#607080">53177</text><line x1="58" y1="108.50" x2="696" y2="108.50" stroke="#e3eaf1"/><text x="48" y="112.50" text-anchor="end" font-size="10" fill="#607080">38898</text><line x1="58" y1="173.00" x2="696" y2="173.00" stroke="#e3eaf1"/><text x="48" y="177.00" text-anchor="end" font-size="10" fill="#607080">24619</text><line x1="58" y1="237.50" x2="696" y2="237.50" stroke="#e3eaf1"/><text x="48" y="241.50" text-anchor="end" font-size="10" fill="#607080">10340</text><line x1="58" y1="302.00" x2="696" y2="302.00" stroke="#e3eaf1"/><text x="48" y="306.00" text-anchor="end" font-size="10" fill="#607080">-3939</text>
    <line x1="58" y1="44" x2="58" y2="302" stroke="#8ca0b3"/>
    <line x1="58" y1="302" x2="696" y2="302" stroke="#8ca0b3"/>
    <text x="58" y="326" font-size="10" fill="#607080">1949-09-01</text>
    <text x="696" y="326" text-anchor="end" font-size="10" fill="#607080">1979-08-01</text>
    <text x="18" y="173.0" transform="rotate(-90 18 173.0)" text-anchor="middle" font-size="11" fill="#607080">Production / Rate</text>
    <polyline points="58.00,279.49 59.78,277.03 61.55,276.98 63.33,277.06 65.11,278.67 66.89,279.66 68.66,279.99 70.44,280.42 72.22,280.40 73.99,280.39 75.77,281.13 77.55,281.27 79.33,281.10 81.10,280.81 82.88,281.40 84.66,281.54 86.43,281.69 88.21,281.79 89.99,282.00 91.77,282.16 93.54,282.28 95.32,281.91 97.10,282.15 98.87,281.91 100.65,282.04 102.43,282.26 104.21,282.74 105.98,282.62 107.76,282.34 109.54,282.19 111.31,282.15 113.09,282.47 114.87,282.57 116.65,282.51 118.42,283.39 120.20,282.59 121.98,282.86 123.75,282.90 125.53,282.85 127.31,282.99 129.09,283.02 130.86,282.94 132.64,282.97 134.42,283.05 136.19,283.14 137.97,284.21 139.75,283.08 141.53,284.21 143.30,282.97 145.08,284.21 146.86,284.21 148.64,283.00 150.41,283.04 152.19,284.21 153.97,284.21 155.74,284.21 157.52,284.21 159.30,283.02 161.08,283.02 162.85,284.21 164.63,284.21 166.41,284.21 168.18,284.21 169.96,284.21 171.74,284.21 173.52,284.21 175.29,284.21 177.07,284.21 178.85,284.21 180.62,284.21 182.40,284.21 184.18,284.21 185.96,284.21 187.73,284.21 189.51,284.21 191.29,284.21 193.06,284.21 194.84,284.21 196.62,284.21 198.40,284.21 200.17,284.21 201.95,284.21 203.73,284.21 205.50,284.21 207.28,284.21 209.06,284.21 210.84,284.21 212.61,284.21 214.39,284.21 216.17,284.21 217.94,284.21 219.72,284.21 221.50,284.21 223.28,284.21 225.05,284.21 226.83,284.21 228.61,284.21 230.38,284.21 232.16,284.21 233.94,284.21 235.72,284.21 237.49,284.21 239.27,284.21 241.05,284.21 242.82,284.21 244.60,284.21 246.38,284.21 248.16,284.21 249.93,284.21 251.71,284.21 253.49,284.21 255.26,284.21 257.04,284.21 258.82,284.21 260.60,284.21 262.37,284.21 264.15,284.21 265.93,284.21 267.70,284.21 269.48,284.21 271.26,284.21 273.04,284.21 274.81,284.21 276.59,284.21 278.37,284.21 280.14,284.21 281.92,284.21 283.70,284.21 285.48,284.21 287.25,284.21 289.03,284.21 290.81,284.21 292.58,284.21 294.36,284.21 296.14,284.21 297.92,284.21 299.69,284.21 301.47,284.21 303.25,284.21 305.03,284.21 306.80,284.21 308.58,284.21 310.36,284.21 312.13,284.21 313.91,284.21 315.69,284.21 317.47,284.21 319.24,284.21 321.02,284.21 322.80,284.21 324.57,284.21 326.35,284.21 328.13,284.21 329.91,284.21 331.68,284.21 333.46,284.21 335.24,284.21 337.01,284.21 338.79,284.21 340.57,284.21 342.35,284.21 344.12,284.21 345.90,284.21 347.68,284.21 349.45,284.21 351.23,284.21 353.01,284.21 354.79,284.21 356.56,284.21 358.34,284.21 360.12,284.21 361.89,284.21 363.67,284.21 365.45,284.21 367.23,284.21 369.00,284.21 370.78,284.21 372.56,284.21 374.33,284.21 376.11,284.21 377.89,284.21 379.67,284.21 381.44,284.21 383.22,284.21 385.00,284.21 386.77,284.21 388.55,284.21 390.33,284.21 392.11,284.21 393.88,284.21 395.66,284.21 397.44,284.21 399.21,284.21 400.99,284.21 402.77,284.21 404.55,284.21 406.32,284.21 408.10,284.21 409.88,284.21 411.65,284.21 413.43,284.21 415.21,284.21 416.99,284.21 418.76,284.21 420.54,284.21 422.32,284.21 424.09,284.21 425.87,284.21 427.65,284.21 429.43,284.21 431.20,284.21 432.98,284.21 434.76,284.21 436.53,284.21 438.31,284.21 440.09,284.21 441.87,284.21 443.64,284.21 445.42,284.21 447.20,284.21 448.97,284.21 450.75,284.21 452.53,284.21 454.31,284.21 456.08,284.21 457.86,284.21 459.64,284.21 461.42,284.21 463.19,284.21 464.97,284.21 466.75,284.21 468.52,284.21 470.30,284.21 472.08,284.21 473.86,284.21 475.63,284.21 477.41,284.21 479.19,284.21 480.96,284.21 482.74,284.21 484.52,284.21 486.30,284.21 488.07,284.21 489.85,284.21 491.63,284.21 493.40,284.21 495.18,284.21 496.96,284.21 498.74,284.21 500.51,284.21 502.29,284.21 504.07,284.21 505.84,284.21 507.62,284.21 509.40,284.21 511.18,284.21 512.95,284.21 514.73,284.21 516.51,284.21 518.28,284.21 520.06,284.21 521.84,284.21 523.62,284.21 525.39,284.21 527.17,284.21 528.95,284.21 530.72,284.21 532.50,284.21 534.28,284.21 536.06,284.21 537.83,284.21 539.61,284.21 541.39,284.21 543.16,284.21 544.94,284.21 546.72,284.21 548.50,284.21 550.27,284.21 552.05,284.21 553.83,284.21 555.60,284.21 557.38,284.21 559.16,284.21 560.94,284.21 562.71,284.21 564.49,284.21 566.27,284.21 568.04,284.21 569.82,284.21 571.60,284.21 573.38,284.21 575.15,284.21 576.93,284.21 578.71,284.21 580.48,284.21 582.26,284.21 584.04,284.21 585.82,284.21 587.59,284.21 589.37,284.21 591.15,284.21 592.92,284.21 594.70,284.21 596.48,284.21 598.26,284.21 600.03,284.21 601.81,284.21 603.59,284.21 605.36,284.21 607.14,284.21 608.92,284.21 610.70,284.21 612.47,284.21 614.25,284.21 616.03,284.21 617.81,284.21 619.58,284.21 621.36,284.21 623.14,284.21 624.91,284.21 626.69,284.21 628.47,284.21 630.25,284.21 632.02,284.21 633.80,284.21 635.58,284.21 637.35,284.21 639.13,284.21 640.91,284.21 642.69,284.21 644.46,284.21 646.24,284.21 648.02,284.21 649.79,284.21 651.57,284.21 653.35,284.21 655.13,284.21 656.90,284.21 658.68,284.21 660.46,284.21 662.23,284.21 664.01,284.21 665.79,284.21 667.57,284.21 669.34,284.21 671.12,284.21 672.90,284.21 674.67,284.21 676.45,284.21 678.23,284.21 680.01,284.21 681.78,284.21 683.56,284.21 685.34,284.21 687.11,284.21 688.89,284.21 690.67,284.21 692.45,284.21 694.22,284.21 696.00,284.21" fill="none" stroke="#2e7d32" stroke-width="2.4" stroke-linecap="round" stroke-linejoin="round"/><polyline points="58.00,284.06 59.78,284.18 61.55,284.13 63.33,284.14 65.11,284.14 66.89,284.15 68.66,284.10 70.44,284.19 72.22,284.20 73.99,284.19 75.77,284.20 77.55,284.17 79.33,284.18 81.10,284.18 82.88,284.15 84.66,284.16 86.43,284.11 88.21,284.11 89.99,284.11 91.77,284.11 93.54,284.10 95.32,284.06 97.10,284.08 98.87,284.02 100.65,284.11 102.43,284.16 104.21,284.13 105.98,284.17 107.76,284.16 109.54,284.16 111.31,284.16 113.09,284.15 114.87,284.14 116.65,284.11 118.42,284.16 120.20,284.14 121.98,284.14 123.75,284.15 125.53,284.16 127.31,284.16 129.09,284.20 130.86,284.16 132.64,284.16 134.42,284.16 136.19,284.15 137.97,284.21 139.75,284.16 141.53,284.21 143.30,284.16 145.08,284.21 146.86,284.21 148.64,284.16 150.41,284.16 152.19,284.21 153.97,284.21 155.74,284.21 157.52,284.21 159.30,284.13 161.08,284.15 162.85,284.21 164.63,284.21 166.41,284.21 168.18,284.21 169.96,284.21 171.74,284.21 173.52,284.21 175.29,284.21 177.07,284.21 178.85,284.21 180.62,284.21 182.40,284.21 184.18,284.21 185.96,284.21 187.73,284.21 189.51,284.21 191.29,284.21 193.06,284.21 194.84,284.21 196.62,284.21 198.40,284.21 200.17,284.21 201.95,284.21 203.73,284.21 205.50,284.21 207.28,284.21 209.06,284.21 210.84,284.21 212.61,284.21 214.39,284.21 216.17,284.21 217.94,284.21 219.72,284.21 221.50,284.21 223.28,284.21 225.05,284.21 226.83,284.21 228.61,284.21 230.38,284.21 232.16,284.21 233.94,284.21 235.72,284.21 237.49,284.21 239.27,284.21 241.05,284.21 242.82,284.21 244.60,284.21 246.38,284.21 248.16,284.21 249.93,284.21 251.71,284.21 253.49,284.21 255.26,284.21 257.04,284.21 258.82,284.21 260.60,284.21 262.37,284.21 264.15,284.21 265.93,284.21 267.70,284.21 269.48,284.21 271.26,284.21 273.04,284.21 274.81,284.21 276.59,284.21 278.37,284.21 280.14,284.21 281.92,284.21 283.70,284.21 285.48,284.21 287.25,284.21 289.03,284.21 290.81,284.21 292.58,284.21 294.36,284.21 296.14,284.21 297.92,284.21 299.69,284.21 301.47,284.21 303.25,284.21 305.03,284.21 306.80,284.21 308.58,284.21 310.36,284.21 312.13,284.21 313.91,284.21 315.69,284.21 317.47,284.21 319.24,284.21 321.02,284.21 322.80,284.21 324.57,284.21 326.35,284.21 328.13,284.21 329.91,284.21 331.68,284.21 333.46,284.21 335.24,284.21 337.01,284.21 338.79,284.21 340.57,284.21 342.35,284.21 344.12,284.21 345.90,284.21 347.68,284.21 349.45,284.21 351.23,284.21 353.01,284.21 354.79,284.21 356.56,284.21 358.34,284.21 360.12,284.21 361.89,284.21 363.67,284.21 365.45,284.21 367.23,284.21 369.00,284.21 370.78,284.21 372.56,284.21 374.33,284.21 376.11,284.21 377.89,284.21 379.67,284.21 381.44,284.21 383.22,284.21 385.00,284.21 386.77,284.21 388.55,284.21 390.33,284.21 392.11,284.21 393.88,284.21 395.66,284.21 397.44,284.21 399.21,284.21 400.99,284.21 402.77,284.21 404.55,284.21 406.32,284.21 408.10,284.21 409.88,284.21 411.65,284.21 413.43,284.21 415.21,284.21 416.99,284.21 418.76,284.21 420.54,284.21 422.32,284.21 424.09,284.21 425.87,284.21 427.65,284.21 429.43,284.21 431.20,284.21 432.98,284.21 434.76,284.21 436.53,284.21 438.31,284.21 440.09,284.21 441.87,284.21 443.64,284.21 445.42,284.21 447.20,284.21 448.97,284.21 450.75,284.21 452.53,284.21 454.31,284.21 456.08,284.21 457.86,284.21 459.64,284.21 461.42,284.21 463.19,284.21 464.97,284.21 466.75,284.21 468.52,284.21 470.30,284.21 472.08,284.21 473.86,284.21 475.63,284.21 477.41,284.21 479.19,284.21 480.96,284.21 482.74,284.21 484.52,284.21 486.30,284.21 488.07,284.21 489.85,284.21 491.63,284.21 493.40,284.21 495.18,284.21 496.96,284.21 498.74,284.21 500.51,284.21 502.29,284.21 504.07,284.21 505.84,284.21 507.62,284.21 509.40,284.21 511.18,284.21 512.95,284.21 514.73,284.21 516.51,284.21 518.28,284.21 520.06,284.21 521.84,284.21 523.62,284.21 525.39,284.21 527.17,284.21 528.95,284.21 530.72,284.21 532.50,284.21 534.28,284.21 536.06,284.21 537.83,284.21 539.61,284.21 541.39,284.21 543.16,284.21 544.94,284.21 546.72,284.21 548.50,284.21 550.27,284.21 552.05,284.21 553.83,284.21 555.60,284.21 557.38,284.21 559.16,284.21 560.94,284.21 562.71,284.21 564.49,284.21 566.27,284.21 568.04,284.21 569.82,284.21 571.60,284.21 573.38,284.21 575.15,284.21 576.93,284.21 578.71,284.21 580.48,284.21 582.26,284.21 584.04,284.21 585.82,284.21 587.59,284.21 589.37,284.21 591.15,284.21 592.92,284.21 594.70,284.21 596.48,284.21 598.26,284.21 600.03,284.21 601.81,284.21 603.59,284.21 605.36,284.21 607.14,284.21 608.92,284.21 610.70,284.21 612.47,284.21 614.25,284.21 616.03,284.21 617.81,284.21 619.58,284.21 621.36,284.21 623.14,284.21 624.91,284.21 626.69,284.21 628.47,284.21 630.25,284.21 632.02,284.21 633.80,284.21 635.58,284.21 637.35,284.21 639.13,284.21 640.91,284.21 642.69,284.21 644.46,284.21 646.24,284.21 648.02,284.21 649.79,284.21 651.57,284.21 653.35,284.21 655.13,284.21 656.90,284.21 658.68,284.21 660.46,284.21 662.23,284.21 664.01,284.21 665.79,284.21 667.57,284.21 669.34,284.21 671.12,284.21 672.90,284.21 674.67,284.21 676.45,284.21 678.23,284.21 680.01,284.21 681.78,284.21 683.56,284.21 685.34,284.21 687.11,284.21 688.89,284.21 690.67,284.21 692.45,284.21 694.22,284.21 696.00,284.21" fill="none" stroke="#1f6fb2" stroke-width="2.4" stroke-linecap="round" stroke-linejoin="round"/><polyline points="58.00,276.64 59.78,266.52 61.55,280.62 63.33,278.84 65.11,266.13 66.89,283.10 68.66,271.35 70.44,267.76 72.22,269.09 73.99,267.91 75.77,271.03 77.55,270.67 79.33,267.86 81.10,267.50 82.88,272.67 84.66,263.84 86.43,266.60 88.21,267.06 89.99,267.70 91.77,267.26 93.54,265.55 95.32,258.72 97.10,264.18 98.87,266.26 100.65,269.45 102.43,268.55 104.21,271.57 105.98,265.68 107.76,265.96 109.54,264.87 111.31,263.65 113.09,264.00 114.87,266.11 116.65,266.29 118.42,270.99 120.20,269.71 121.98,268.14 123.75,267.53 125.53,268.35 127.31,271.74 129.09,268.64 130.86,267.33 132.64,267.36 134.42,266.03 136.19,265.76 137.97,284.21 139.75,264.45 141.53,284.21 143.30,263.70 145.08,284.21 146.86,284.21 148.64,264.19 150.41,263.33 152.19,284.21 153.97,284.21 155.74,284.21 157.52,284.21 159.30,264.38 161.08,264.81 162.85,284.21 164.63,284.21 166.41,284.21 168.18,284.21 169.96,284.21 171.74,284.21 173.52,284.21 175.29,284.21 177.07,284.21 178.85,284.21 180.62,284.21 182.40,284.21 184.18,284.21 185.96,284.21 187.73,284.21 189.51,284.21 191.29,284.21 193.06,284.21 194.84,284.21 196.62,284.21 198.40,284.21 200.17,284.21 201.95,284.21 203.73,284.21 205.50,284.21 207.28,284.21 209.06,284.21 210.84,284.21 212.61,284.21 214.39,284.21 216.17,284.21 217.94,284.21 219.72,284.21 221.50,284.21 223.28,284.21 225.05,284.21 226.83,284.21 228.61,284.21 230.38,284.21 232.16,284.21 233.94,284.21 235.72,284.21 237.49,284.21 239.27,284.21 241.05,284.21 242.82,284.21 244.60,284.21 246.38,284.21 248.16,284.21 249.93,284.21 251.71,284.21 253.49,284.21 255.26,284.21 257.04,284.21 258.82,284.21 260.60,284.21 262.37,284.21 264.15,284.21 265.93,284.21 267.70,284.21 269.48,284.21 271.26,284.21 273.04,284.21 274.81,284.21 276.59,284.21 278.37,284.21 280.14,284.21 281.92,284.21 283.70,284.21 285.48,284.21 287.25,284.21 289.03,284.21 290.81,284.21 292.58,284.21 294.36,284.21 296.14,284.21 297.92,284.21 299.69,284.21 301.47,284.21 303.25,284.21 305.03,284.21 306.80,284.21 308.58,284.21 310.36,284.21 312.13,284.21 313.91,284.21 315.69,284.21 317.47,284.21 319.24,284.21 321.02,284.21 322.80,284.21 324.57,284.21 326.35,284.21 328.13,284.21 329.91,284.21 331.68,284.21 333.46,284.21 335.24,284.21 337.01,284.21 338.79,284.21 340.57,284.21 342.35,284.21 344.12,284.21 345.90,284.21 347.68,284.21 349.45,284.21 351.23,284.21 353.01,284.21 354.79,284.21 356.56,284.21 358.34,284.21 360.12,284.21 361.89,284.21 363.67,284.21 365.45,284.21 367.23,284.21 369.00,284.21 370.78,284.21 372.56,284.21 374.33,284.21 376.11,284.21 377.89,284.21 379.67,284.21 381.44,284.21 383.22,284.21 385.00,284.21 386.77,284.21 388.55,284.21 390.33,284.21 392.11,284.21 393.88,284.21 395.66,284.21 397.44,284.21 399.21,284.21 400.99,284.21 402.77,284.21 404.55,284.21 406.32,284.21 408.10,284.21 409.88,284.21 411.65,284.21 413.43,284.21 415.21,284.21 416.99,284.21 418.76,284.21 420.54,284.21 422.32,284.21 424.09,284.21 425.87,284.21 427.65,284.21 429.43,284.21 431.20,284.21 432.98,284.21 434.76,284.21 436.53,284.21 438.31,284.21 440.09,284.21 441.87,284.21 443.64,284.21 445.42,284.21 447.20,284.21 448.97,284.21 450.75,284.21 452.53,284.21 454.31,284.21 456.08,284.21 457.86,284.21 459.64,284.21 461.42,284.21 463.19,284.21 464.97,284.21 466.75,284.21 468.52,284.21 470.30,284.21 472.08,284.21 473.86,284.21 475.63,284.21 477.41,284.21 479.19,284.21 480.96,284.21 482.74,284.21 484.52,284.21 486.30,284.21 488.07,284.21 489.85,284.21 491.63,284.21 493.40,284.21 495.18,284.21 496.96,284.21 498.74,284.21 500.51,284.21 502.29,284.21 504.07,284.21 505.84,284.21 507.62,284.21 509.40,284.21 511.18,284.21 512.95,284.21 514.73,284.21 516.51,284.21 518.28,284.21 520.06,284.21 521.84,284.21 523.62,284.21 525.39,284.21 527.17,284.21 528.95,284.21 530.72,284.21 532.50,284.21 534.28,284.21 536.06,284.21 537.83,284.21 539.61,284.21 541.39,284.21 543.16,284.21 544.94,284.21 546.72,284.21 548.50,284.21 550.27,284.21 552.05,284.21 553.83,284.21 555.60,284.21 557.38,284.21 559.16,284.21 560.94,284.21 562.71,284.21 564.49,284.21 566.27,284.21 568.04,284.21 569.82,284.21 571.60,284.21 573.38,284.21 575.15,284.21 576.93,284.21 578.71,284.21 580.48,284.21 582.26,284.21 584.04,284.21 585.82,284.21 587.59,284.21 589.37,284.21 591.15,284.21 592.92,284.21 594.70,284.21 596.48,284.21 598.26,284.21 600.03,284.21 601.81,284.21 603.59,284.21 605.36,284.21 607.14,284.21 608.92,284.21 610.70,284.21 612.47,284.21 614.25,284.21 616.03,284.21 617.81,284.21 619.58,284.21 621.36,284.21 623.14,284.21 624.91,284.21 626.69,284.21 628.47,284.21 630.25,284.21 632.02,284.21 633.80,284.21 635.58,284.21 637.35,284.21 639.13,284.21 640.91,284.21 642.69,284.21 644.46,284.21 646.24,284.21 648.02,284.21 649.79,284.21 651.57,284.21 653.35,284.21 655.13,284.21 656.90,284.21 658.68,284.21 660.46,284.21 662.23,284.21 664.01,284.21 665.79,284.21 667.57,284.21 669.34,284.21 671.12,284.21 672.90,284.21 674.67,284.21 676.45,284.21 678.23,284.21 680.01,284.21 681.78,284.21 683.56,284.21 685.34,284.21 687.11,284.21 688.89,284.21 690.67,284.21 692.45,284.21 694.22,284.21 696.00,284.21" fill="none" stroke="#c2410c" stroke-width="2.4" stroke-linecap="round" stroke-linejoin="round"/><polyline points="58.00,180.50 59.78,61.79 61.55,96.40 63.33,62.66 65.11,117.95 66.89,156.90 68.66,153.55 70.44,170.64 72.22,166.13 73.99,169.69 75.77,188.88 77.55,193.11 79.33,197.19 81.10,178.78 82.88,200.14 84.66,201.46 86.43,206.12 88.21,216.61 89.99,215.77 91.77,222.73 93.54,224.45 95.32,272.72 97.10,224.64 98.87,212.88 100.65,219.14 102.43,223.96 104.21,240.05 105.98,235.09 107.76,235.69 109.54,270.12 111.31,267.74 113.09,261.61 114.87,246.65 116.65,233.34 118.42,283.39 120.20,251.85 121.98,266.76 123.75,255.44 125.53,253.01 127.31,254.95 129.09,261.72 130.86,261.38 132.64,254.56 134.42,265.63 136.19,276.76 137.97,284.21 139.75,270.69 141.53,284.21 143.30,281.73 145.08,284.21 146.86,284.21 148.64,279.36 150.41,279.55 152.19,284.21 153.97,284.21 155.74,284.21 157.52,284.21 159.30,261.58 161.08,248.64 162.85,284.21 164.63,284.21 166.41,284.21 168.18,284.21 169.96,284.21 171.74,284.21 173.52,284.21 175.29,284.21 177.07,284.21 178.85,284.21 180.62,284.21 182.40,284.21 184.18,284.21 185.96,284.21 187.73,284.21 189.51,284.21 191.29,284.21 193.06,284.21 194.84,284.21 196.62,284.21 198.40,284.21 200.17,284.21 201.95,284.21 203.73,284.21 205.50,284.21 207.28,284.21 209.06,284.21 210.84,284.21 212.61,284.21 214.39,284.21 216.17,284.21 217.94,284.21 219.72,284.21 221.50,284.21 223.28,284.21 225.05,284.21 226.83,284.21 228.61,284.21 230.38,284.21 232.16,284.21 233.94,284.21 235.72,284.21 237.49,284.21 239.27,284.21 241.05,284.21 242.82,284.21 244.60,284.21 246.38,284.21 248.16,284.21 249.93,284.21 251.71,284.21 253.49,284.21 255.26,284.21 257.04,284.21 258.82,284.21 260.60,284.21 262.37,284.21 264.15,284.21 265.93,284.21 267.70,284.21 269.48,284.21 271.26,284.21 273.04,284.21 274.81,284.21 276.59,284.21 278.37,284.21 280.14,284.21 281.92,284.21 283.70,284.21 285.48,284.21 287.25,284.21 289.03,284.21 290.81,284.21 292.58,284.21 294.36,284.21 296.14,284.21 297.92,284.21 299.69,284.21 301.47,284.21 303.25,284.21 305.03,284.21 306.80,284.21 308.58,284.21 310.36,284.21 312.13,284.21 313.91,284.21 315.69,284.21 317.47,284.21 319.24,284.21 321.02,284.21 322.80,284.21 324.57,284.21 326.35,284.21 328.13,284.21 329.91,284.21 331.68,284.21 333.46,284.21 335.24,284.21 337.01,284.21 338.79,284.21 340.57,284.21 342.35,284.21 344.12,284.21 345.90,284.21 347.68,284.21 349.45,284.21 351.23,284.21 353.01,284.21 354.79,284.21 356.56,284.21 358.34,284.21 360.12,284.21 361.89,284.21 363.67,284.21 365.45,284.21 367.23,284.21 369.00,284.21 370.78,284.21 372.56,284.21 374.33,284.21 376.11,284.21 377.89,284.21 379.67,284.21 381.44,284.21 383.22,284.21 385.00,284.21 386.77,284.21 388.55,284.21 390.33,284.21 392.11,284.21 393.88,284.21 395.66,284.21 397.44,284.21 399.21,284.21 400.99,284.21 402.77,284.21 404.55,284.21 406.32,284.21 408.10,284.21 409.88,284.21 411.65,284.21 413.43,284.21 415.21,284.21 416.99,284.21 418.76,284.21 420.54,284.21 422.32,284.21 424.09,284.21 425.87,284.21 427.65,284.21 429.43,284.21 431.20,284.21 432.98,284.21 434.76,284.21 436.53,284.21 438.31,284.21 440.09,284.21 441.87,284.21 443.64,284.21 445.42,284.21 447.20,284.21 448.97,284.21 450.75,284.21 452.53,284.21 454.31,284.21 456.08,284.21 457.86,284.21 459.64,284.21 461.42,284.21 463.19,284.21 464.97,284.21 466.75,284.21 468.52,284.21 470.30,284.21 472.08,284.21 473.86,284.21 475.63,284.21 477.41,284.21 479.19,284.21 480.96,284.21 482.74,284.21 484.52,284.21 486.30,284.21 488.07,284.21 489.85,284.21 491.63,284.21 493.40,284.21 495.18,284.21 496.96,284.21 498.74,284.21 500.51,284.21 502.29,284.21 504.07,284.21 505.84,284.21 507.62,284.21 509.40,284.21 511.18,284.21 512.95,284.21 514.73,284.21 516.51,284.21 518.28,284.21 520.06,284.21 521.84,284.21 523.62,284.21 525.39,284.21 527.17,284.21 528.95,284.21 530.72,284.21 532.50,284.21 534.28,284.21 536.06,284.21 537.83,284.21 539.61,284.21 541.39,284.21 543.16,284.21 544.94,284.21 546.72,284.21 548.50,284.21 550.27,284.21 552.05,284.21 553.83,284.21 555.60,284.21 557.38,284.21 559.16,284.21 560.94,284.21 562.71,284.21 564.49,284.21 566.27,284.21 568.04,284.21 569.82,284.21 571.60,284.21 573.38,284.21 575.15,284.21 576.93,284.21 578.71,284.21 580.48,284.21 582.26,284.21 584.04,284.21 585.82,284.21 587.59,284.21 589.37,284.21 591.15,284.21 592.92,284.21 594.70,284.21 596.48,284.21 598.26,284.21 600.03,284.21 601.81,284.21 603.59,284.21 605.36,284.21 607.14,284.21 608.92,284.21 610.70,284.21 612.47,284.21 614.25,284.21 616.03,284.21 617.81,284.21 619.58,284.21 621.36,284.21 623.14,284.21 624.91,284.21 626.69,284.21 628.47,284.21 630.25,284.21 632.02,284.21 633.80,284.21 635.58,284.21 637.35,284.21 639.13,284.21 640.91,284.21 642.69,284.21 644.46,284.21 646.24,284.21 648.02,284.21 649.79,284.21 651.57,284.21 653.35,284.21 655.13,284.21 656.90,284.21 658.68,284.21 660.46,284.21 662.23,284.21 664.01,284.21 665.79,284.21 667.57,284.21 669.34,284.21 671.12,284.21 672.90,284.21 674.67,284.21 676.45,284.21 678.23,284.21 680.01,284.21 681.78,284.21 683.56,284.21 685.34,284.21 687.11,284.21 688.89,284.21 690.67,284.21 692.45,284.21 694.22,284.21 696.00,284.21" fill="none" stroke="#2e7d32" stroke-width="2.4" stroke-linecap="round" stroke-linejoin="round"/>
    <line x1="70" y1="338" x2="92" y2="338" stroke="#2e7d32" stroke-width="3"/><text x="98" y="342" font-size="11" fill="#24384d">DailyAv_Oil, bbl</text><line x1="320" y1="338" x2="342" y2="338" stroke="#1f6fb2" stroke-width="3"/><text x="348" y="342" font-size="11" fill="#24384d">DailyAv_Water, bbl</text><line x1="70" y1="320" x2="92" y2="320" stroke="#c2410c" stroke-width="3"/><text x="98" y="324" font-size="11" fill="#24384d">DailyAv_Gas, Mscf</text><line x1="320" y1="320" x2="342" y2="320" stroke="#2e7d32" stroke-width="3"/><text x="348" y="324" font-size="11" fill="#24384d">Monthly_Oil, bbl</text>
  </g>
</svg>
