<svg xmlns="http://www.w3.org/2000/svg" width="720" height="360" viewBox="0 0 720 360" role="img" aria-label="Production profile for XE13-1">
  <rect width="100%" height="100%" fill="#ffffff"/>
  <text x="58" y="24" font-family="Inter, Arial, sans-serif" font-size="16" font-weight="700" fill="#102033">Production Profile - XE13-1</text>
  <text x="58" y="39" font-family="Inter, Arial, sans-serif" font-size="11" fill="#607080">1946-05-01 to 1976-04-01 | compact AI Lab SVG</text>
  <g font-family="Inter, Arial, sans-serif">
    <line x1="58" y1="44.00" x2="696" y2="44.00" stroke="#e3eaf1"/><text x="48" y="48.00" text-anchor="end" font-size="10" fill="#607080">16397</text><line x1="58" y1="108.50" x2="696" y2="108.50" stroke="#e3eaf1"/><text x="48" y="112.50" text-anchor="end" font-size="10" fill="#607080">11994</text><line x1="58" y1="173.00" x2="696" y2="173.00" stroke="#e3eaf1"/><text x="48" y="177.00" text-anchor="end" font-size="10" fill="#607080">7591</text><line x1="58" y1="237.50" x2="696" y2="237.50" stroke="#e3eaf1"/><text x="48" y="241.50" text-anchor="end" font-size="10" fill="#607080">3188</text><line x1="58" y1="302.00" x2="696" y2="302.00" stroke="#e3eaf1"/><text x="48" y="306.00" text-anchor="end" font-size="10" fill="#607080">-1215</text>
    <line x1="58" y1="44" x2="58" y2="302" stroke="#8ca0b3"/>
    <line x1="58" y1="302" x2="696" y2="302" stroke="#8ca0b3"/>
    <text x="58" y="326" font-size="10" fill="#607080">1946-05-01</text>
    <text x="696" y="326" text-anchor="end" font-size="10" fill="#607080">1976-04-01</text>
    <text x="18" y="173.0" transform="rotate(-90 18 173.0)" text-anchor="middle" font-size="11" fill="#607080">Production / Rate</text>
    <polyline points="58.00,227.38 59.78,246.59 61.55,235.74 63.33,232.23 65.11,214.09 66.89,226.36 68.66,222.83 70.44,232.72 72.22,224.94 73.99,232.35 75.77,234.66 77.55,235.15 79.33,225.27 81.10,225.92 82.88,236.62 84.66,235.73 86.43,233.12 88.21,232.68 89.99,225.24 91.77,202.47 93.54,211.26 95.32,207.97 97.10,212.59 98.87,220.05 100.65,226.64 102.43,229.87 104.21,221.43 105.98,229.42 107.76,196.30 109.54,203.14 111.31,210.20 113.09,210.83 114.87,194.83 116.65,211.97 118.42,211.52 120.20,205.81 121.98,237.91 123.75,216.84 125.53,218.34 127.31,200.47 129.09,194.29 130.86,201.59 132.64,204.71 134.42,213.65 136.19,214.55 137.97,212.16 139.75,205.56 141.53,209.17 143.30,210.25 145.08,211.96 146.86,214.29 148.64,216.86 150.41,218.22 152.19,210.65 153.97,217.59 155.74,217.31 157.52,222.35 159.30,239.02 161.08,239.08 162.85,246.91 164.63,246.31 166.41,239.04 168.18,236.62 169.96,239.23 171.74,239.18 173.52,242.10 175.29,243.41 177.07,244.20 178.85,245.06 180.62,241.99 182.40,229.88 184.18,233.22 185.96,238.65 187.73,239.33 189.51,235.55 191.29,234.94 193.06,235.19 194.84,231.60 196.62,236.50 198.40,239.00 200.17,239.68 201.95,241.37 203.73,242.58 205.50,245.06 207.28,248.81 209.06,249.03 210.84,249.11 212.61,246.63 214.39,244.49 216.17,245.35 217.94,243.74 219.72,247.31 221.50,249.00 223.28,252.96 225.05,250.01 226.83,250.62 228.61,252.55 230.38,251.82 232.16,253.16 233.94,275.42 235.72,276.85 237.49,278.84 239.27,275.79 241.05,265.60 242.82,265.20 244.60,277.57 246.38,276.28 248.16,275.83 249.93,278.04 251.71,278.56 253.49,277.78 255.26,218.15 257.04,224.63 258.82,210.81 260.60,231.06 262.37,227.25 264.15,231.33 265.93,231.73 267.70,230.53 269.48,224.32 271.26,224.85 273.04,224.61 274.81,229.84 276.59,228.66 278.37,227.83 280.14,230.09 281.92,228.69 283.70,230.16 285.48,229.46 287.25,233.91 289.03,232.92 290.81,236.64 292.58,236.92 294.36,235.62 296.14,238.06 297.92,242.80 299.69,240.67 301.47,244.93 303.25,249.70 305.03,249.91 306.80,235.24 308.58,241.86 310.36,239.00 312.13,234.98 313.91,248.87 315.69,251.66 317.47,244.91 319.24,248.54 321.02,253.33 322.80,257.60 324.57,252.17 326.35,253.02 328.13,252.82 329.91,284.21 331.68,284.21 333.46,284.21 335.24,284.21 337.01,284.21 338.79,191.71 340.57,245.14 342.35,249.86 344.12,247.73 345.90,245.62 347.68,238.60 349.45,242.81 351.23,242.72 353.01,240.71 354.79,235.66 356.56,240.81 358.34,239.46 360.12,239.78 361.89,239.70 363.67,242.37 365.45,242.24 367.23,243.98 369.00,242.27 370.78,245.60 372.56,249.18 374.33,251.50 376.11,246.77 377.89,249.10 379.67,248.14 381.44,246.42 383.22,242.57 385.00,243.35 386.77,241.35 388.55,246.89 390.33,244.29 392.11,242.27 393.88,246.41 395.66,248.02 397.44,246.87 399.21,244.39 400.99,243.64 402.77,243.55 404.55,237.53 406.32,238.14 408.10,249.66 409.88,246.54 411.65,246.16 413.43,248.31 415.21,246.81 416.99,246.69 418.76,241.71 420.54,218.02 422.32,252.51 424.09,249.16 425.87,245.93 427.65,232.29 429.43,246.81 431.20,246.58 432.98,246.71 434.76,246.77 436.53,246.60 438.31,240.39 440.09,240.82 441.87,240.66 443.64,240.93 445.42,242.64 447.20,246.31 448.97,245.84 450.75,245.26 452.53,245.14 454.31,247.01 456.08,249.60 457.86,251.18 459.64,248.40 461.42,252.43 463.19,259.91 464.97,255.66 466.75,257.98 468.52,252.24 470.30,254.92 472.08,253.60 473.86,257.27 475.63,262.67 477.41,231.88 479.19,212.76 480.96,187.90 482.74,253.09 484.52,272.34 486.30,267.07 488.07,263.71 489.85,258.54 491.63,259.36 493.40,256.27 495.18,260.88 496.96,259.45 498.74,261.45 500.51,255.54 502.29,259.02 504.07,254.90 505.84,256.21 507.62,255.18 509.40,257.33 511.18,253.60 512.95,253.59 514.73,253.67 516.51,252.37 518.28,257.76 520.06,255.88 521.84,248.93 523.62,237.46 525.39,284.21 527.17,284.21 528.95,284.21 530.72,284.21 532.50,284.21 534.28,284.21 536.06,253.32 537.83,253.41 539.61,284.21 541.39,284.21 543.16,254.77 544.94,255.91 546.72,250.83 548.50,251.23 550.27,275.82 552.05,272.97 553.83,238.21 555.60,263.05 557.38,262.16 559.16,259.69 560.94,284.21 562.71,284.21 564.49,284.21 566.27,254.93 568.04,268.82 569.82,260.27 571.60,258.23 573.38,249.65 575.15,253.31 576.93,260.29 578.71,284.21 580.48,253.50 582.26,255.18 584.04,256.15 585.82,284.21 587.59,256.53 589.37,256.20 591.15,258.75 592.92,256.13 594.70,257.58 596.48,284.21 598.26,255.38 600.03,284.21 601.81,284.21 603.59,284.21 605.36,252.15 607.14,252.19 608.92,284.21 610.70,284.21 612.47,284.21 614.25,284.21 616.03,284.21 617.81,284.21 619.58,284.21 621.36,284.21 623.14,284.21 624.91,263.43 626.69,253.23 628.47,251.77 630.25,260.49 632.02,260.35 633.80,284.21 635.58,284.21 637.35,284.21 639.13,257.98 640.91,256.01 642.69,284.21 644.46,284.21 646.24,255.44 648.02,254.58 649.79,258.15 651.57,258.61 653.35,258.27 655.13,284.21 656.90,284.21 658.68,284.21 660.46,258.60 662.23,254.30 664.01,257.47 665.79,252.14 667.57,249.01 669.34,250.32 671.12,250.05 672.90,250.90 674.67,256.88 676.45,256.54 678.23,254.24 680.01,257.98 681.78,252.16 683.56,250.52 685.34,250.11 687.11,254.30 688.89,253.38 690.67,253.47 692.45,254.04 694.22,259.12 696.00,256.91" fill="none" stroke="#2e7d32" stroke-width="2.4" stroke-linecap="round" stroke-linejoin="round"/><polyline points="58.00,284.21 59.78,284.21 61.55,284.21 63.33,284.21 65.11,284.21 66.89,284.21 68.66,284.21 70.44,284.21 72.22,284.21 73.99,284.16 75.77,284.16 77.55,284.21 79.33,284.21 81.10,284.15 82.88,284.21 84.66,284.21 86.43,284.21 88.21,284.21 89.99,284.21 91.77,284.21 93.54,284.21 95.32,284.21 97.10,284.21 98.87,284.21 100.65,284.21 102.43,283.92 104.21,284.21 105.98,284.15 107.76,284.12 109.54,284.21 111.31,284.21 113.09,284.13 114.87,284.20 116.65,284.21 118.42,284.21 120.20,284.20 121.98,283.85 123.75,283.37 125.53,282.72 127.31,282.85 129.09,283.56 130.86,283.80 132.64,281.64 134.42,283.58 136.19,283.52 137.97,283.59 139.75,283.33 141.53,283.26 143.30,282.94 145.08,283.53 146.86,283.23 148.64,282.26 150.41,283.11 152.19,283.64 153.97,283.58 155.74,283.57 157.52,282.98 159.30,282.65 161.08,282.90 162.85,282.89 164.63,282.32 166.41,281.66 168.18,282.30 169.96,282.06 171.74,283.49 173.52,283.32 175.29,283.03 177.07,283.17 178.85,282.26 180.62,282.34 182.40,282.25 184.18,282.61 185.96,282.33 187.73,282.28 189.51,281.33 191.29,282.32 193.06,282.45 194.84,282.25 196.62,282.37 198.40,282.14 200.17,282.69 201.95,282.80 203.73,282.78 205.50,282.79 207.28,283.20 209.06,283.45 210.84,283.63 212.61,283.28 214.39,283.20 216.17,283.27 217.94,283.54 219.72,282.61 221.50,282.47 223.28,282.76 225.05,282.95 226.83,282.54 228.61,282.19 230.38,279.81 232.16,282.37 233.94,283.91 235.72,284.11 237.49,284.05 239.27,284.13 241.05,284.09 242.82,284.08 244.60,284.12 246.38,284.10 248.16,284.06 249.93,284.13 251.71,284.16 253.49,284.14 255.26,283.58 257.04,283.60 258.82,284.05 260.60,283.87 262.37,283.86 264.15,283.74 265.93,283.92 267.70,283.94 269.48,283.99 271.26,283.99 273.04,284.21 274.81,284.16 276.59,284.15 278.37,284.08 280.14,284.10 281.92,283.94 283.70,284.07 285.48,284.11 287.25,284.00 289.03,284.07 290.81,284.08 292.58,284.04 294.36,283.95 296.14,283.92 297.92,283.99 299.69,283.81 301.47,284.07 303.25,284.10 305.03,284.11 306.80,284.12 308.58,284.09 310.36,284.07 312.13,283.84 313.91,283.93 315.69,283.84 317.47,283.96 319.24,284.01 321.02,283.99 322.80,284.00 324.57,284.02 326.35,283.93 328.13,283.89 329.91,284.21 331.68,284.21 333.46,284.21 335.24,284.21 337.01,284.21 338.79,280.72 340.57,283.82 342.35,283.87 344.12,283.83 345.90,283.81 347.68,283.84 349.45,283.87 351.23,283.83 353.01,284.12 354.79,283.81 356.56,284.00 358.34,284.02 360.12,284.02 361.89,284.04 363.67,284.03 365.45,284.05 367.23,284.04 369.00,284.03 370.78,284.13 372.56,284.13 374.33,284.14 376.11,284.13 377.89,284.13 379.67,284.13 381.44,284.13 383.22,284.09 385.00,284.09 386.77,284.07 388.55,284.08 390.33,284.09 392.11,283.92 393.88,283.87 395.66,283.80 397.44,283.99 399.21,283.99 400.99,283.94 402.77,283.79 404.55,283.62 406.32,283.95 408.10,283.78 409.88,283.82 411.65,283.81 413.43,283.86 415.21,283.82 416.99,283.81 418.76,283.76 420.54,283.51 422.32,283.88 424.09,283.84 425.87,283.81 427.65,283.66 429.43,283.82 431.20,283.81 432.98,283.81 434.76,283.82 436.53,283.81 438.31,283.75 440.09,283.76 441.87,283.76 443.64,283.78 445.42,283.80 447.20,283.74 448.97,283.85 450.75,283.94 452.53,283.94 454.31,283.86 456.08,283.89 457.86,283.90 459.64,283.86 461.42,283.85 463.19,283.99 464.97,283.91 466.75,284.00 468.52,283.89 470.30,283.94 472.08,283.90 473.86,283.91 475.63,284.00 477.41,283.69 479.19,283.63 480.96,283.22 482.74,283.87 484.52,284.07 486.30,284.01 488.07,284.04 489.85,284.00 491.63,283.96 493.40,283.94 495.18,283.95 496.96,283.98 498.74,283.98 500.51,283.62 502.29,283.96 504.07,283.55 505.84,283.58 507.62,283.58 509.40,283.60 511.18,283.60 512.95,283.69 514.73,283.90 516.51,283.74 518.28,283.94 520.06,283.79 521.84,283.85 523.62,282.66 525.39,284.21 527.17,284.21 528.95,284.21 530.72,284.21 532.50,284.21 534.28,284.21 536.06,283.15 537.83,284.21 539.61,284.21 541.39,284.21 543.16,284.21 544.94,284.21 546.72,284.21 548.50,284.21 550.27,284.21 552.05,284.21 553.83,284.21 555.60,284.21 557.38,284.21 559.16,284.21 560.94,284.21 562.71,284.21 564.49,284.21 566.27,284.21 568.04,284.21 569.82,284.21 571.60,284.21 573.38,284.21 575.15,284.21 576.93,284.21 578.71,284.21 580.48,284.21 582.26,284.21 584.04,284.21 585.82,284.21 587.59,284.21 589.37,284.21 591.15,284.21 592.92,284.15 594.70,284.21 596.48,284.21 598.26,284.21 600.03,284.21 601.81,284.21 603.59,284.21 605.36,284.21 607.14,284.21 608.92,284.21 610.70,284.21 612.47,284.21 614.25,284.21 616.03,284.21 617.81,284.21 619.58,284.21 621.36,284.21 623.14,284.21 624.91,284.21 626.69,284.21 628.47,284.21 630.25,284.21 632.02,284.21 633.80,284.21 635.58,284.21 637.35,284.21 639.13,284.21 640.91,284.21 642.69,284.21 644.46,284.21 646.24,284.21 648.02,284.21 649.79,284.21 651.57,284.21 653.35,284.21 655.13,284.21 656.90,284.21 658.68,284.21 660.46,284.21 662.23,284.21 664.01,284.21 665.79,284.21 667.57,284.21 669.34,284.21 671.12,284.21 672.90,284.21 674.67,284.21 676.45,284.21 678.23,284.21 680.01,284.21 681.78,284.21 683.56,284.21 685.34,284.21 687.11,284.21 688.89,284.21 690.67,284.21 692.45,284.21 694.22,284.21 696.00,284.21" fill="none" stroke="#1f6fb2" stroke-width="2.4" stroke-linecap="round" stroke-linejoin="round"/><polyline points="58.00,260.74 59.78,270.81 61.55,266.47 63.33,263.08 65.11,253.62 66.89,257.56 68.66,256.23 70.44,264.23 72.22,259.79 73.99,264.02 75.77,261.38 77.55,258.60 79.33,252.03 81.10,249.00 82.88,258.10 84.66,259.42 86.43,258.00 88.21,259.87 89.99,258.43 91.77,255.16 93.54,252.99 95.32,246.27 97.10,249.26 98.87,249.82 100.65,261.54 102.43,273.87 104.21,268.67 105.98,276.91 107.76,271.93 109.54,268.87 111.31,260.17 113.09,267.53 114.87,262.17 116.65,261.02 118.42,266.00 120.20,263.22 121.98,268.46 123.75,250.85 125.53,257.17 127.31,233.93 129.09,143.87 130.86,220.85 132.64,245.68 134.42,258.79 136.19,252.74 137.97,253.62 139.75,219.48 141.53,277.58 143.30,221.20 145.08,217.98 146.86,219.87 148.64,217.58 150.41,209.70 152.19,188.27 153.97,196.99 155.74,216.09 157.52,214.93 159.30,217.73 161.08,215.78 162.85,222.51 164.63,209.33 166.41,181.90 168.18,203.06 169.96,211.55 171.74,216.23 173.52,209.88 175.29,209.98 177.07,206.67 178.85,203.61 180.62,198.74 182.40,183.67 184.18,202.66 185.96,199.80 187.73,206.37 189.51,176.87 191.29,201.01 193.06,195.88 194.84,189.44 196.62,201.74 198.40,203.02 200.17,195.76 201.95,197.56 203.73,200.22 205.50,194.56 207.28,190.53 209.06,185.27 210.84,177.75 212.61,179.99 214.39,183.98 216.17,177.53 217.94,176.82 219.72,174.87 221.50,172.75 223.28,181.48 225.05,175.51 226.83,185.47 228.61,178.21 230.38,179.65 232.16,182.05 233.94,268.03 235.72,271.47 237.49,278.41 239.27,269.96 241.05,262.54 242.82,256.45 244.60,273.86 246.38,273.12 248.16,276.15 249.93,276.13 251.71,273.46 253.49,274.94 255.26,209.36 257.04,210.64 258.82,165.83 260.60,217.97 262.37,184.60 264.15,196.69 265.93,200.10 267.70,205.96 269.48,187.40 271.26,176.72 273.04,188.87 274.81,173.41 276.59,166.98 278.37,160.84 280.14,179.16 281.92,165.88 283.70,175.78 285.48,161.20 287.25,174.82 289.03,164.63 290.81,165.71 292.58,175.61 294.36,182.92 296.14,166.96 297.92,174.72 299.69,177.48 301.47,170.06 303.25,206.91 305.03,211.39 306.80,192.48 308.58,196.31 310.36,186.90 312.13,176.06 313.91,201.64 315.69,207.92 317.47,165.45 319.24,196.73 321.02,193.91 322.80,211.57 324.57,184.41 326.35,217.13 328.13,219.72 329.91,284.21 331.68,284.21 333.46,284.21 335.24,284.21 337.01,284.21 338.79,202.57 340.57,214.67 342.35,176.66 344.12,156.04 345.90,217.47 347.68,220.37 349.45,227.80 351.23,215.12 353.01,191.79 354.79,179.76 356.56,180.85 358.34,188.20 360.12,186.47 361.89,175.53 363.67,176.95 365.45,185.01 367.23,174.26 369.00,183.72 370.78,171.76 372.56,177.27 374.33,180.34 376.11,178.75 377.89,177.32 379.67,178.16 381.44,163.05 383.22,180.07 385.00,171.23 386.77,182.49 388.55,170.25 390.33,172.75 392.11,186.12 393.88,173.68 395.66,180.20 397.44,173.20 399.21,170.30 400.99,169.07 402.77,170.16 404.55,167.00 406.32,162.24 408.10,175.98 409.88,171.35 411.65,179.69 413.43,177.02 415.21,171.58 416.99,182.95 418.76,164.66 420.54,61.79 422.32,209.68 424.09,192.37 425.87,175.02 427.65,76.75 429.43,156.57 431.20,158.75 432.98,155.21 434.76,150.96 436.53,151.89 438.31,154.92 440.09,279.78 441.87,280.10 443.64,190.99 445.42,181.73 447.20,199.32 448.97,203.92 450.75,195.47 452.53,194.03 454.31,178.46 456.08,225.19 457.86,219.90 459.64,217.30 461.42,229.57 463.19,210.51 464.97,229.54 466.75,214.92 468.52,230.78 470.30,211.81 472.08,236.52 473.86,238.87 475.63,250.89 477.41,193.03 479.19,130.46 480.96,177.87 482.74,215.71 484.52,263.70 486.30,257.49 488.07,222.36 489.85,222.01 491.63,219.66 493.40,212.19 495.18,224.77 496.96,226.15 498.74,210.36 500.51,212.13 502.29,227.79 504.07,222.38 505.84,188.25 507.62,179.08 509.40,207.07 511.18,215.33 512.95,234.03 514.73,201.31 516.51,122.59 518.28,195.70 520.06,199.21 521.84,196.98 523.62,181.31 525.39,284.21 527.17,284.21 528.95,284.21 530.72,284.21 532.50,284.21 534.28,284.21 536.06,219.85 537.83,240.88 539.61,284.21 541.39,284.21 543.16,202.63 544.94,239.67 546.72,201.35 548.50,196.93 550.27,255.87 552.05,255.03 553.83,207.38 555.60,176.08 557.38,245.77 559.16,229.98 560.94,284.21 562.71,284.21 564.49,284.21 566.27,229.62 568.04,254.31 569.82,249.12 571.60,252.58 573.38,234.09 575.15,221.41 576.93,254.72 578.71,284.21 580.48,251.91 582.26,219.50 584.04,255.64 585.82,284.21 587.59,249.86 589.37,239.89 591.15,247.01 592.92,249.78 594.70,246.34 596.48,284.21 598.26,253.49 600.03,284.21 601.81,284.21 603.59,284.21 605.36,268.08 607.14,260.87 608.92,284.21 610.70,284.21 612.47,284.21 614.25,284.21 616.03,284.21 617.81,284.21 619.58,284.21 621.36,284.21 623.14,284.21 624.91,263.75 626.69,253.71 628.47,252.27 630.25,240.69 632.02,263.09 633.80,284.21 635.58,284.21 637.35,284.21 639.13,255.42 640.91,253.25 642.69,284.21 644.46,284.21 646.24,260.67 648.02,264.74 649.79,257.96 651.57,258.42 653.35,258.08 655.13,284.21 656.90,284.21 658.68,284.21 660.46,258.41 662.23,254.08 664.01,257.28 665.79,271.19 667.57,269.92 669.34,258.48 671.12,256.86 672.90,251.89 674.67,257.69 676.45,260.33 678.23,250.10 680.01,254.36 681.78,239.99 683.56,237.71 685.34,232.33 687.11,238.71 688.89,262.39 690.67,262.45 692.45,256.41 694.22,262.25 696.00,257.52" fill="none" stroke="#c2410c" stroke-width="2.4" stroke-linecap="round" stroke-linejoin="round"/>
    <line x1="70" y1="338" x2="92" y2="338" stroke="#2e7d32" stroke-width="3"/><text x="98" y="342" font-size="11" fill="#24384d">DailyAv_Oil, bbl</text><line x1="320" y1="338" x2="342" y2="338" stroke="#1f6fb2" stroke-width="3"/><text x="348" y="342" font-size="11" fill="#24384d">DailyAv_Water, bbl</text><line x1="70" y1="320" x2="92" y2="320" stroke="#c2410c" stroke-width="3"/><text x="98" y="324" font-size="11" fill="#24384d">DailyAv_Gas, Mscf</text>
  </g>
</svg>
